<mxfile host="65bd71144e">
    <diagram id="FnNKWWcjfeICFgsjMg66" name="페이지-1">
        <mxGraphModel dx="974" dy="574" grid="1" gridSize="10" guides="1" tooltips="1" connect="1" arrows="1" fold="1" page="1" pageScale="1" pageWidth="827" pageHeight="1169" math="0" shadow="0">
            <root>
                <mxCell id="0"/>
                <mxCell id="1" parent="0"/>
                <mxCell id="2" value="S_0&lt;br&gt;ls = 0" style="ellipse;whiteSpace=wrap;html=1;aspect=fixed;" vertex="1" parent="1">
                    <mxGeometry x="80" y="80" width="110" height="110" as="geometry"/>
                </mxCell>
                <mxCell id="3" value="S_1&lt;br&gt;ls = 1" style="ellipse;whiteSpace=wrap;html=1;aspect=fixed;" vertex="1" parent="1">
                    <mxGeometry x="260" y="80" width="110" height="110" as="geometry"/>
                </mxCell>
                <mxCell id="4" value="S_2&lt;br&gt;ls=2" style="ellipse;whiteSpace=wrap;html=1;aspect=fixed;" vertex="1" parent="1">
                    <mxGeometry x="420" y="80" width="110" height="110" as="geometry"/>
                </mxCell>
                <mxCell id="5" value="S_3&lt;br&gt;ls = 3" style="ellipse;whiteSpace=wrap;html=1;aspect=fixed;" vertex="1" parent="1">
                    <mxGeometry x="580" y="80" width="110" height="110" as="geometry"/>
                </mxCell>
                <mxCell id="6" value="S_4&lt;br&gt;ls = 4" style="ellipse;whiteSpace=wrap;html=1;aspect=fixed;" vertex="1" parent="1">
                    <mxGeometry x="730" y="80" width="110" height="110" as="geometry"/>
                </mxCell>
                <mxCell id="7" value="" style="endArrow=classic;html=1;exitX=1;exitY=0;exitDx=0;exitDy=0;entryX=0;entryY=0;entryDx=0;entryDy=0;" edge="1" parent="1" source="2" target="3">
                    <mxGeometry width="50" height="50" relative="1" as="geometry">
                        <mxPoint x="390" y="290" as="sourcePoint"/>
                        <mxPoint x="440" y="240" as="targetPoint"/>
                    </mxGeometry>
                </mxCell>
                <mxCell id="9" value="" style="endArrow=classic;html=1;exitX=1;exitY=0;exitDx=0;exitDy=0;" edge="1" parent="1" source="3">
                    <mxGeometry width="50" height="50" relative="1" as="geometry">
                        <mxPoint x="183.8908729652601" y="106.10912703473991" as="sourcePoint"/>
                        <mxPoint x="436" y="96" as="targetPoint"/>
                    </mxGeometry>
                </mxCell>
                <mxCell id="10" value="" style="endArrow=classic;html=1;exitX=1;exitY=0;exitDx=0;exitDy=0;entryX=0;entryY=0;entryDx=0;entryDy=0;" edge="1" parent="1" source="4" target="5">
                    <mxGeometry width="50" height="50" relative="1" as="geometry">
                        <mxPoint x="193.8908729652601" y="116.10912703473991" as="sourcePoint"/>
                        <mxPoint x="296.1091270347399" y="116.10912703473991" as="targetPoint"/>
                    </mxGeometry>
                </mxCell>
                <mxCell id="11" value="" style="endArrow=classic;html=1;exitX=1;exitY=0;exitDx=0;exitDy=0;entryX=0;entryY=0;entryDx=0;entryDy=0;" edge="1" parent="1" source="5" target="6">
                    <mxGeometry width="50" height="50" relative="1" as="geometry">
                        <mxPoint x="203.8908729652601" y="126.10912703473991" as="sourcePoint"/>
                        <mxPoint x="306.1091270347399" y="126.10912703473991" as="targetPoint"/>
                    </mxGeometry>
                </mxCell>
                <mxCell id="12" value="" style="shape=image;verticalLabelPosition=bottom;labelBackgroundColor=#ffffff;verticalAlign=top;aspect=fixed;imageAspect=0;image=data:image/png,iVBORw0KGgoAAAANSUhEUgAAAygAAADhCAYAAAAj+5EQAAAAAXNSR0IArs4c6QAAAARnQU1BAACxjwv8YQUAAAAJcEhZcwAADsMAAA7DAcdvqGQAAJA2SURBVHhe7b0L0B1Vme+9cHTkpiZcJDIQrhKCCAQxghBhMAbCwYIBUhZRCF8pVFRCFcePQIEKfFyKi0qVgFoCajhc5gwDBuWTS6EHBjiDwHBXBCPIRZSDAWQYkPkc8/Vvvfv/stLp7t29d1/3fn5V69377e7dvXqtZz2Xdelea1WEayMPPujcrFnOPfCAc7vs0ttoDMR11zl36KHOtbSqy+Cuu+5ye+21l3v22WfdZptt1tvafR6M2sGsqB0sW7bMHXnkkb2t1bHWWmu5a6+91h1yyCG9Ld3kpZdecjfccIO76KKL3L333utOOOEE97nPfc5tt912vSMMwzByEOkSt+GGLlKMLlKMvY2G0UGWLnVuyhTnTj65t6HdvK332T4ISiKHwl11VW+DYaTzwgsvuA9/+MMjFZzALlE7OOigg7yj3RRvvPGGDwDJw+zZs30Qc8stt/T2tovnnnvO53PDyKFYtGiRD+pWrlzpzjvvPAtODMMozh//OPG5zz4Tn4bRVW67zbntt+/9037aO4ICY9DzXwtjUI5L6RmIwBEdNa6L6u/QqP7uvPNOt+uuu/pRoipYd9113eabb+4uvPBCt3DhQvfYY4+522+/3Z1yyil+PwEgDv/ll1/uP4899li/vQ088cQT7tJLL3Xnn3++zyd5O/DAA90GG2zQO8IwDGMAIn3nFi0yP8ToPmut5dzNNzs3b15vQ7tpd4ASOR1uxgwXeWTOjVjPeK2MQYBCrzk95PM60vCK8OMf/9gdc8wx7g9/+ENvS7VsscUW7umnn/bfFZQwfY7RHGjTNDBGdghKrr/+ej/SRF7nz5/v1llnnd4RhmEYA8JI8X77ObdsmYuUS2+jYXSQ555zbvPNnXv8cRc5S72N7abdAQp0LOJrJVrPs3Klc9aj3BmYWnX44Ye7559/3r3//e93V111lbv77rvd1KlTe0cMBwHPihUr3KOPPuouuOCC3lbnFixY4Ecfdt999zWmRWlNzAMPPDAZsNQN5XLjjTe6c845x68vITBhjcmee+7ZO8IwDKMEZs927uCDOzNn3zBSuesu5/bay7nXX3euIx147Q9Qjj7aufnzbXHaMGiRnz1woFNooTcBA1xzzTV+hGBQOB/TtggumKaFcw+MkhwcGeHddtvNp6xpUYxULVmyJNJxr9c+SsH6kuXLl/vrw1lnneUOO+wwW1tiGEb5qGPPZnAYowAzac45x7l77ultaD/tD1A69tSB1kJP0EknWaDXUViHss8++xRaU8FIw/333+8DkltvvdVPgxKMODBCwqL3Ig8W4HjyUedaH6ZxkXdbX2IYRi1EutMdd5xzL77o3PLlvY2G0WF40M4zz7BQt7eh/bT3KV4hr7zS+2IMDMPUd9/d+2e0YaQAh36UYGrXbTyBow9MwWJ05Oijj/aL3lk7wogDowysG3n88ccdfRIEGKwhKRKcsBCdUZe5c+f2tlQHdch9EBBxD1ybhwSwaJ9RJAtODMOojMsuc+7SSzvlzBlGJg895Nz06b1/ukH7A5Tdd594NJoxHLvt5tz55/f+GW2eeeYZv0Zh1CBIiYMjzyN/zz77bL94nfUhPF4XeHcKoydMx1JAMsx0KNaqwA477OA/q4AAi3sJHxNMUMXULtaY2OJ3wzAqhYXxTCNl7atNHzVGBQLujslz+wOUHXd0jrnyPIHAGBw5lTwZbcR58skn/SNnR4np06dPjqAoKGGUBEd+v/328w48jwdmlIH3flxyySXeuWche1lOPQESU6zKftcMa0sYLWEdDAHWPffcE/kGN/vAiulctsbEMIza+PKXWeBmD+YxRgf5fVtuOfHZEdofoGy00cSnXpZkDIacyl4vuNEtcNKZXvX5z39+MigBRkl4LwpOPc48owxVTX9iDQjrT8qA9TEKsnj3CovvmTqm0RIeF22jJYZh1MZLL008lIcOUXuksGE0TvsDFJytgw5y7uKLexuMgeHN/GOyDqUK6OlnLUTdsEj8JB5wEPHQQw/50YVwlKSOt+czagMsrB8G7oUpXKyPIcjikclaW2KjJYZhNAZPOGKePu+JqEGnGkbt2BSvCjjttIn5czbNaziOOmpiHQrPwzYKwyhFE1PH1ltvPf/ODxa7/+u//qubM2dO7YvE/zjECCbrShgh0YL3p556ajLIYm2MrS0xDKNR6HjCNvI+qAacODptGFU2jEr47W97X7pFNwIUvbuDF8wYg8OL7E44wbnjj594jKIxNBgVPW2KzypgHQlTnhhhAN6H0hQ7siYsB2FQwroSRn7OPPPMyZEf7qctT+JiVIzpZjz5LUwaNTIMY4ShnX/mMxMzDDJe9srob5lBBOciMPn0pz/tvv/97/tHwpvOMSrhvvsm5LtjtP89KII3ynfoFf2tBQXISxuvvXZk34milwmWLdo4rYceeuhq59W1Phc1fkZXqnjDOobsX/7lX9ymm27qvvnNb/rrsPZk/fXX7x2RTNH3pmSBEz9jxgy/RiRpGhZ5ZB/TtQjUWC9DmfCSyX4vf2wSHALW9KTB+2K4D5t6ZhgjShQk+Hed3H576hu20W977723u+KKK3LrAnQLDzaZP39+6ggxI8gnnnhi778J0DdHHXWUH1k2jKGRz8dT6br24AcClE7w4Q+vWrVsWe8fYyguvHCiPF9/vbdhtIicSiKI3n/Fufnmm1dde+21k+nZZ5/126OgYFVkPPx34H+uw/GvR2XJ9wsp2wFYuXLlqsjB99fjvNwD1+Kcg6SDDjrIn6ssosDDn5c8Cu6Z7Wedddbkdckz5cH9dA3uTfdInVOXui/ukfs1jDzQhpGZe+65x383WgjtOaqjqIGj9Hsbk3nggQcmdUMe0B8fjmwsv0EfpiEdI/3P//odulS2xzAGpsP+XncCFAo5crqMEsB5RCmPqOHEuScNggINnYPvMjLheeXMhgFJuD8Nzs9vOZ8CEV0jnjBQ7Oe4q6++eo2Ahf9vuummWoIBgh2u+fOf/3yyLJQPHDEClS4GJSFyDkK4JwVg7DOHwcgDDq0cTVJex9aoCdoxbT2qm37BCaCDqce8Oi7Uj2m/YTv7QxsC2AhdDxlCtxrGQCDnkRxFBry3oVt0J0BBwVPQkeI3SoDghPLks2Fw+r7+9a97J7ioIUfJx38jx74fOJ5Jowxxg6JeriVLlvjzYkAwHFwn7FVnX3hd7gtHhWuwnVENGS0lzsM+DBKOP/cSnjMOeePYGTNm9D1PmmEsCufi3OG1KBMMZ1Ze62TYwEHOAjKRhEaQuHcLUkYb6rcMueYc6Ay1G2SrLe1l7EFP0+GZU0eiu0l5QH5U5/HgI0RBSJo+CYNcC1KMgcCeIbcd1TvdCVCAgs5o8EZBKMtI+TUdXeMAS6ErqVc+zaCj1EOnmYTC53i+sw/kWCqxnYThOOaYY1YdeOCB/rgsdE4Sv4sbFvZzD1/96lcnr6Hjw0RAw+8ViA3jrPDbWbNmrTr22GMzAyAS+xSMKXgh9YPjZSAXLFjgP2+//fbe3vagOs5zT2lQLpwjyxHQdShPY3ShHeWRJeShn9NKG0JmNPqZ99xGhcjuZbT1EHVeZAUbIdIT6M4sHY8sIBdZYGM4j3WMGAMRyU2khHr/dI9uBSg4BuYclAtKt+EyxWCj0B955BGv3DEEcoz5xMiHil49SySCBf7HAZcR4ZPfgLZrG4lj5DCQwpEGvseNCv/rWP1OoylJQQH5Yh/X4n6qMizkK8nZYZtGbrh/8hLPYzxxTDwtWrRo1cKFC1cdf/zxk/etcm0TqvM8jh/HJI0s6f6yHArQtcxZGE3kjOaRc9oWbT0LyQtwTr6T0AtGzdBmCQioj8hu5EUBR946Q3dyfJY+Qj9zDB0j/dCxnNcwcoOdQ9Yj+ekq3QpQMBp9eqyMgqAgGxZi9V7HwSAoAMARQOHjQCo4iTuJ8WAEli9f7v/fY489/P8hON/sk8Oq3qq40fj2t789ed54wmjghHC90BlpK5QhifySCPAUkORJbXTMuR/KPcshADka3HOInFLkpx+6Vh7Hwugeql/pjyzyyAxthuME50fHsA19YdQEeot6wH/ooyfiaMQ8qWMjjmwAKUsfFTkn6LzWMWLkBh0WyUzkNPU2dI92e1NxaPAUeA7jYeQE4aVXKTKag4CjRu9zv55n9qc5dTgDKN80+J2M+pVXXuk/6VWKg/JmH0mOt/4Pe7/IS2hIlDf9HxoNzjlz5kyftP+yyy5LvF/1dBn1IqcyyyEABbvx41T3eXpIixxrdA/JUpJ+CVFb7ycH8QAF0CmSRQtSaoJAkuCkj51KgjrE/vRDNkUja6S0gIL6J+VF8pYncDYMTyS3Xu47TPe8KQocZTGAojFSwMhiROlZLliuChz6BSjqvU5S2BgAgpws9HvWjfCZhHrClTgnayb4jjEgaJHxYNvXvva11Y4nhfnAWZGhufjii/1+vqfdq5wbo14UNGQFKApek5yCftO72I6DIAckSwaMbiNHMEuWQLLQTw7SdBu/U5DSLxgyBoSOJvyFqIx9GtC5p46oxzSoSwWiCjjRN7Id8SCW4zk2PpLbD36TZ5TXMDyR7HW9M78bb5IPWbzYuXvvde7ww5177rneRmMoZs6ceMP8RRc5d+qpvY394eV9vJAP0l5EJaJAwUXK2m222Wa9LaszderU3re30Bu+edvuXnvt5V9gxYsS4eCDD3ZLly6dTPwfvnAvMgr+jeUf+9jH/MsTebnWo48+6l555RX/RvYomHFf+tKX/MsFr732Wn98ZGT8b/UW9BkzZviXI/KCxt/+9rd+30knnZR6r+uuu66/R6NeXnvtNf9J+aexnBexRaiOBS9T48WXkeGfrFe2IQO8cBLZ4ry8DZ8XcnLcTTfd1FfejW7y5JNP9r6lg17Sy1n7ycH555+fqNv4HToGfXHMMcf0thqlEdkNt//+Ey9g5KXEzz5byYuJkYXDI1+EesaOYFsAO4ee4GW5xx9/fOSqvOWrRMGL/9xmm238ZxHe/e53974ZRgbIP77Zjjv2NnSUXqDSLeiFp1eK3lDrySwPjaT06T0UGjHoJ0Ya2UiazqDeJEZGGL6mh0g92iR6oOidopdcvZX0SLFNPZB8J2mqGGkQNEqj63I+XZM8sU3/p5F3TrFRHtR9Vp2H9UqdIrf0WvP5jW98w29H/nSeMFHvyC3nsLodfaRD0kZQkAH0AMck6bM4HIdcpaHr2ShKSaCfNWrCZx99nQfsDCnU/cgHtoq6Qx7QD2kgM6Hu6CdjSeg32EHDyARZRP5z6Ke2M5gn1wYIUiLF4AOVEpSQ0aNg4KepDlnI8QuVOIpWhp40e/ZsfxznkxM5iEPIuZKm8QwLeTcnop0gRwQSSSBHyIQCTMnbtGnTJr+T9FQ2ZA/Z5Hf9glFj9NB0waS2jj4KO0+QlSw4nuOypvJwnTznMnKAT4Duxy/ICBiKogXtSQl7VVRP5LGZgnPr+mk6zjAmQRaRf4LzEaC7AQpYkFI+KlN6/XKUqXp20pABJiX1GGltQFkGmnNl9Vgao4XkJ8kJDOeB813bAMOPA8m+KgJao5sooI3P9We7Alw5mFm95qBzxXUb2/kt55F8DtIZM/Zgn6gDyhedH5W19wV6bbxMqC9kAtuijoxB64zfIxdZoJ+4hmSO4MQ6TIy+4GMhW3yOAN0OUABlJMVkDbgcUPo5y1QBSpLyZJsULEnOYYiMeFmjE5wLw2+MB5KfuLOonnDkL0nuQL81eTFCNErCJ86k/keWkLO0wCME51WPMf/ABz7gP+OJ8+H0psmnEQMbQzunvWKbojL0ie8EKNRHB3wABTlJYAc1dYyE7PULhA1jErWLEdEp3VskH4dF148/7txDDzl3zTW9jcZQ7Lmncw88MFGmF1zQ25hNZGR7397igui3LKKPDLn/XwuVQ6Igxn9mLXAuQqTg3Wc/+9nef8a4weJ2Frbvt99+7qCDDvIPOEh7MIMefMACeMMQ3/zmN/3DEHh4AoufH4r0YBTE+kXPe0a6kQduwDnnnOMf4sFCaR6sELLBBhu4PfbYw39fvHix14FKUYDjH9Jxzz33uJNPPjlVPscSFpNHbThquC5qyM6ttdZbCRux114TdmnOHOduvtlFBencJZc4d955E4vgO/jwCmSHB3LwoBd0EXZy2bJl3qbyoBdkzjD6EumhSGnxhKAJv3gU6AUq3YceCaJHozxYkIeIZAwX0ruDGKX1YKt3ms/wf0EvJNvplTSMotD7jPzEE3LWb0qEeiqtB9soCvpOo8N8Jo0AayqPTc2JwdQo9D0JG8PIB1PqonKMCmwi8Z1t7CNxHMePwFS4+AgKssP/2MKyZhIYYwg+GG1nhFiLP5ES7T48Vm2//Zy78ELneo/6M0rg6KMnovKDDnLuyCPXeFQjj0/cfPPN/eNbz6MXK+Kuu+6afCwwvZF6FCfbeeQiPYeCHm4eHTwqYmjUDz3Y//zP/+wfIb377rv7R3vSg92PoyPZppfcZM+oAnrEIWnkeKxgVOTpp537zW+cu+OOCXsSh8d/80jUnXZybsaMTo6E5IURXpC9NIxSOPtsFzlXE4/WHhFGJ0ABBSk403PnOsdUnxFWdLXwxhvO3X8/LzJx7pRTnFu2bCJQCUDhMhWCgARw+uLBiXgjOl+4jXcB8E4BcxKNullrrbVWC6wNoyzQc0xbHXn5wj4wvffRRyf+551E+g6RXZgEuzx7tnN77+3cFluMzjSUgliAYpQOwQn+GdO7RmhKYPfXoITMmzexHoVe/ssvd+644yYUqDE4BBMI/MknT4xOLVo0Mdcx4PTTT5+cs6352knBCcS3PfPMM/ZyQ6N2tGZgypQp/tMwyoR1JsCIXuehraDzSXfdNfFCX5xsgg3WhTDiwQt0b7xx9eCEERHWH1IWdEDRs4sdwZ7YuhvDKAfaJ8EJa7JGbL3SaI2ghDCsrOlIZ545EbwYw4NRYgSlpNEp600ymoBpYTMix4pFy4dU8IZpY7zR1FUCFS2qHxoChBdfdO6FF5z71a+ce+WV3o4eBATrrz/xfeutJ4IH0iDBAPbzZz+bWKx+/fW9jT0YKd95Z+c23XTiejvsYAFHAWZHNvTIyIbqrfOGMRToBToJGMkcsXY4ugEKEFl+5zsT0aWtTSkHRqYYRWHU46STnJs/f6hAxabZGE2gdVJ33nmnPSXHKB1Ne+UphUkjyWuArfrjHydGIO6+u7cxAucjHiCge/fZp/dPjKTjBes8gFHD7bef+B7y/PMMaTt3223O3XvvxHXojOLJWQQ6m29uU6ZLAJtnescoDflkI+jKj3aAIlSBWug9pFM99mBMr7rKuSVLJozYFVc4N2AvIcqaKWHWm2TUSSU93G0CRzUPKT3srKHgMac8ivm1115zv/rVr/xDCAQjUNdHjjBrzaZOndrb6tz06dPdpptu6jbZZBO38cYbj2bZ5oBe8p133tk/JtajheKMfoQQjCggAAUf4WgIROUZFWgxPcs1eYy7Rl0gPvLy8stvPQSFcyt4YQRml116B+Wnn9zcFt0rj56nUypEcrN+dM9bbrmlf/BKrsCug9A5YsGJUQoaPWEq5QjOBBiPAAWoSBbR41SjjL/wBed2240H1vcOMApDoHLiiRPPpWcqQMHhRS0ktWk2Rt0MG6DgZJThgLMWJs8Tx1ZDjqfm+6vnW87mkLzyvve5F3//+95/zj2+7bZu6gc+4N6InOR1PvhBv+0FpvfEuLvX8y8nVBDEbLXVVpG63c2nwvfbJaL6fDGql3/ae2/390cc4XaYNm31ACREQQHrVAhIBp2O1SA8xfGXv/ylu++++/zTGQlaBe8hUvvIWouTJjf8nkAPmdlhhx2iorFpZHHQH4899pgFPOMKTwqk40IdISPG+AQoAuPOiArTvoAeKyqZYGXLLW0Yuyg8hICHEeAY0SuGocUY5XDcbB2A0RSagjOo+tPT5waVXRw7Rg1x6PpO96BzRVN/4s5uvOcbtP6gDy/+4Q/u4eicD95yi/s/P/2pw4WcOneu23jmTPeeyLHe6E9/cmurfMKnMYXo+tOnv7UmAT0aXT/StO7pp592v/nNb9wdd9zhH6Ix8ZODfJntu+++3XM6qQvgJZ88sUpQN7EyenPOHPdOdKECkBGxLbwMFZnl5YIKKBgR2TG6x5122slttNFGQ9UrbUNy82gk97RTQG7mRvLJ1MxdBhjdGUWoC17uOCpTxqh7vbwZ6MC0wDQFOoV5OAUPocjhb3WR8QtQBI41FfvwwxPGP26AMbw8qpjF9SNa+aVBWfJ8+/vum3gONz26egN95OykjVIpQOHt72Zw1kTTJeDFF190L8SnhwTgHIhxnVZThGEDFFCQwhPseL9PkSkpGGKedIfTtZpjwagkoyFJeokOgCGdXXpc6anGuSQ44gl6LNjF6aMt9r0H8sdaCSB/oGlDSSMFmrIU8Zddd3UrI91wb3Ts/cuXu1MfecTf/xe+8IV2jqxk1UWI7rFXN18/7TT3f199tX9b/KiMFiE3N9xwg5d5ghIFmQQkdehuHPGHo3pg5FNyS4B/4IEHjvaIXA543w5lgq1oqzMfn/qXNmrWD00p1ZTArbfeeuiAuFPI17rmmolO4YTXPowS4xugJKHeMSL4O++cGGlR48E5oJeSkRbSmCvFVGhAGlEBjPdNNyWW1y233OL222+/0V0HkBMpb3oLNWdbvYZJ4BxAOJ0iCXo1UeSULfO6LXB5C6aO8ELHYR/OoMX21AnOW6qhpF0QbIbrAQBDjd6J1yXtRiO7JTwlSS+zPKU3csy6r8p6ohXE6F77TEH7XZToM33bggVu4098wr17ww0ngjCInI9adC0j6+h9RkbU0aI6ob3x9EKNsme0I/Voj8q6Ou7nqquu8vpIwSwOcZMOIcE9L7/UCA56Dsd1XPWbZA4ddHUUGLdh7Q51lDb1T0EGnWqsOdK6oywYVXnyySf99zQbiRwwlZDzjowsYDfCjnR1Ap111oQ+GvGn01qA0g8MV9TQvBOBkQ0bBYZLDSE+xcGmik2UHdNfaFCRUvKPpgxGpKpeqIzjTy9mG3tX4j2CQlMlUNoaFcm7YJRezj9GjqGU+fORY8h7aTS1BqTEcdDHptcpAR7OwMjHybyXYUioy2OOOcZ///bpp7sPbbPNW845owtPPbWmYx7qDnreoQKnnMCE+seY48DgYM6fP79ZJ0bBGgFBJKd/+c//dK/+z//pXo6Ctal/+INLvfNIdleD8kLfFkUjPmlrdtBVc+ZMvNUcvV6gLnDMcMiqKGM6dOpai4FMn3baaV43ITfojbZNIUK/33///V62ySeO71FHHTWW6zEI1hYtWlSaThsEZCZp6h/2hodmbLHFFqXLbrxzj8BV16YsOrnujQ6exx6beDk27w7ifmQvsBWM1nbpfobAApSiyLhqegP0hivX6AnV0D8gWMwNL2jwOg/lxZAkZXPrrRPl0xuWVIBSlQjinH3mM5/x12mDM44C/8lPfjLZi60eSXq/qlDeIZQFw+v0aEmJ6/rzoqBxnHofqQfKvND6EbX7+KhA0rQmIaNCm4+uV+fbswlWzznnnMnApI0OZhycDdaqfOtb3/IO54+/8hW39yc/6d4VBTBrjDqFZNVBHIIPnjqWtGYntkidNpNF3W3m6KOP9h0OV1xxRWXXDgNaZKYrIxOMZCIzyvdxxx3XCp1fJ8gHdVfn6F08KEHXaOpfrimjFaDRm1sjfwN5AOR4wYIFbs6cOc12zsShE1dP90Ov9fLrQVfxxNkxCkjiWIBSBQgdUxwYkpQjg7ELgxeIFKnvBeRJL+EQ5yiPvvAWYp6kFvFs5Hyc8eMfu+8WFEHWD7z88svu1FNPzTRCODwsssNgNfWeFQw+PZ+hAmfOfdNPpcGwhCM4MiyjPqcbmaA+rrzySn+vjFQJ5kWv/5e/uC3//d/d3/3pT25aJGMbvPmm2/j3v3dvX7Gid1QP2m7o5G6yiXvz3e923z/jDHf/Nde4VZFxYY1JE8ZQgT8B6AUXXNC5HmXq6MYbb/QBFpx55pk+iC4b2iZru7QYG4rOiQfKmemCVc+LJ+jcf//9ff7KHnWmzC+77DK/pqorAW0S6DWN/OCof/azn22XQ9oDJzpcDB4y6COWqUMCs6qDFLVPbFpoO9r40Avyyijb7bffvtr01r6dcpqm2hvlTUWP/4a8I9+RjK6xhIDObKb0Yk/wCeua2tpyLECpEwm9ngDDVINwrnNI1Oj99CimGSCso9QbRAAX3fd/fvGL7q9/+INbm2d4F3g3DcpdPd/9nJezzz7bK6a6n3IS9ui1WYGDesFwToCh8cMOOyxdgYcBuKbLiLAHCFC8GkUUmtKk6ZBQclCuESMtyOT/GVF9cGUmUkVXc2tzYAa/jtKLUaLvPrpL91SUwoc5JvXKhY4ejmudo3e0i9NPP907KMuWLfN5a6NzlhfKkgCL9ktZ9+uQyALnnsex8kCO+LRH4Pzh4lsIHzwRRw+tQL4IbugwiZ8TOC/vQ+GcnI/AZZgOAI3+IVtljaRwTk1RPOmkkyZ1a1eRA60A97vf/W7lC/k1vVY6h+m1z9AxGTFI0CsIFKdMmRL5rdv7wBf5zJIf7r2qIAX9wui77EQuR79FUEd6QMh7I1uwV9Q2P7bDDm5L1rzRQZHUiSzwx8L7zDpWROf3o7UQPz707+wBQalYgNImIuUyOY0kMqSTU6JCwp5bTU0QHYu6/5///t/d/pEDN5shThzZI4/M/dQ0BSko/qynKKGUNowUEEFCHQsICUwISghOcE66NCca48YUm0fOO8/9509/6j4WldnMuXPdBjhsDD8nzdlHHpnC1HPqMgmn5qRNywkNgQKZsJcqNg1HEIAQiPw2crb+o/cEuaiVOMY3dpo2zW0TBcLwl223da9FDt5fP/Yx9/9F7WXdbbZx73rPe/y+SVKuoV5PnBCup1GxpJGKcBSjjiBF10POGS3sitOQB8qaqZpQZDRFgTdTPWiPAqePefFVjHTIUSVoSVoDBhpx0dz8mTNnFgpa9GAGGKbjJQymKROCk1EaPaUuNM2xrICdMsv7QBMFvaB1hXH0QlPQKJ5IOz9tPOtxy2UHKZQjD0pQpwtygvy2TlaifPqOs7Ac4x1oCYHFH7bYwr3nE59w69BJCilTPlOR3yZi9bgadHrkPa/B2/GNVrNy5apVjz++atXNN69ade21q1ZdeOGqVSecQFSZng46aNWqs86a+A2/bymRUfTJ53HZslWrPvzht/LP/3feuWrV66/3jl6TldHvIiMQ/cRFPzkoKqaonBKIlLQ/JjJSvS3l88ADD/g8cB3uKS0vjfLssxMyIRlSeWek56L07OzZq/68ePFEnfB77i2jXgrBeThfkoyTYvkpnLhHtQXuv2QiB3Gy3pEBZIxP7ZNsVkUUMHl5k3zz/yjCfZ0V1SP3yWfafVL2tPfIkfLHkiifm6P6b7JNRk6tl4drI/kmP2H+SPzPdvbnySfH6Bz8pijkR7qTshllKB/uk/vlvouAnKldq7yUVGfsU70VPX9esHXkg+vE80F7iMsM+dZxtIdB4Jqyndwr186lX6rwOShX7pGEfkXmsUdR+Uc3uqbeZxv7woQd4HeyYVE+KTeVE3WZp+0Z9WEjKKMAvQKC0Zff/GZiYbp67uiV5p0u9KpqSk0LelhZSwKrrQ95sDc/Mxw9YqiUp+rQo54wSkRPNk8wAUZTFi9evFrvDj1Ke++9t+/tjhRQqb3L9Kqz1oBerkjR+Z7Ixnuv1aOjnhxGLsIRC8qTJ6rFRz3CEbnelKtwRIjeuEbndEdy/uabb7r7br/d3b18uX+54AeizTMXLnTv+8AH3NRZs9x6PEELahxNDOULIodvspdfslm23AGyR+8oPfV1TGNpA3o0OW3t3HPP9e2c8g/nxEfOlH/4Q+53uzQE+UYueOIeo3/xqUDosqynEIWjyEXapqZ0Me0s89HYI0SRtsKIAQ8Tueaaa1Yb/UK3MxLCAvB+U62qBtmJr61gZAW51+gGx2gkJQpuCukH2tmXv/xl/50Rk9WeSoe/wTR1Ph96KPlJeHGiNrnaVF9GErKewJe1dlcweg8aaeecA+r9Vtk5YxILUEaZSEFFFnDC4U9SJKGjyjSaGp8yBPEARdMjgDne/xEFWu+NDMtGTz3lpkXGWwuV/+2AA9zK6Lj/YP1ODyYP3R6ln/v/nB/O/+IXv+gdRwjnbqPUy1A+4bQajFfpU7lUf1kviosr/rhCD5U4CnwAJ1kOYJ1zupPAiDCVD4cMB7VNT2VhGhJTNJg2FJaNHOqiDkI/NO1pnJxMIcccaINad0MbpC3uuuuunXUuuDe9PyL+yNQDIr0Xl6HQCaVNXHJJuEpqTTQ9jGObeohDU4RlFZ8axz6mt4ZBCWWEfqnrZZSDEupn5IU2gOwA8sSi+0zZ0NSoiFcj23j/P/2Tm3rrre690b1vEgXHb3v72/2+Nab4RudczX/QNNwQOkzDJ/DFp1wlTfWVTdNU9vDcFXf+oU+atnPGW1iAMm5IGakHJOlRqXGnV+DkamFzCYuaUaa//vWv/Zz+0BincXCUvhClradNc+9k3UPEe6P8/21vfQH8bo893I+i+1q2cuVksIJTSyCBk8g8Woz9Gs+KpywgPn80XDfR481//3f3wv/+3+7NKHB4f2/bJIxWZSlR9fYIggb405+wNBN1Q+9RGFByTl4Uh7JW+VN/PGghiYqCzXBON85gnXPWw0dodmFhJk5DuFi+rKAYxtnJFMjiiSee6Nd4XHzxxe4973lP62ViELSORguT0zpD1D7ijneIRvNoQ1U94akLENBTntcGjxnXw1RoU3R8dO7dGRAFIy8++aRbP7IN7/jbv3UrIzvyx+j7U1Hw8v+tWOH+gYfRCNm1hE6vyTUZ8cdxg4KFEWxrIrRz+App61uN6rEApQboxXi9t7iWJ3wIfU9aPFf0JX1Dg3McTgsKUa9H0iLp0CEPlZkc7xhM0Xn0vvvcxddd575/ww29rW/1VlEWpKQ3y/LI4NSeYgKv6Lzummsm8/hkpGh/8/TT7vfR919EaUaU17f//vfuXffc4z4eGeh3U65JPTigkQfB/UT5eiJS7L+IFNd6UcCw2xFHTCwgz4Jgg+CH8gUCEcqRKWxZEIB95CMTj6CmfHUdlWuNU5jihMP/dfUyMWJQW1sYgqTezDJHOBScmOGcKGt6xAlS6ngQQZPgNDEFTHL18Y9/3H3qU5/yI81h5w4LuJPKQU75uAcnIl4eyA80/hLTJLBtdFxpNCLsNEuyyRG/i5IeYvy2yIa8d9993bv+7u96W3r0bNqb73+/+5/f/KZbFJ1n2Qg8/a8sQjs36vqlrViAUiIYzHBOMU5V+PQYQQ9YGkTtceiBZV4pQcs222xT+Uv9+hIFXP754GEwoyAGZzxtzmiM13fd1a3ae2/3zsjZf3v0XaMyCuj0VBM9zQTSHtnI6Mqx557rPs6zxB95xE+L+q+f/tT9V/T9b199deKgHn+N0n+ut56/7lrvfvfE6ASfOP1/+7cTB8Xgbdc//8d/dP8nurftIsM246MfdW/XsZovG5JQj5OEI1SMqLzjHc69853Orb32REASlquMUYohWu1cPYPjiQ+5lxzQqAebXluMGnOfxxW1+zw93cOg4ITzNvVen7YxDkEK+vDpp5/272thRIUnxoUga4wEpL3DyEZOktH0y8rLJW10PslupHWYCXUIRrr+pciu/T4694uPPeaeufVW3wnHlZjchY7Qk+qyOpDCJ+TZlKY1Ce1c1uikUQ0WoAwJDZxghPmrmruqgEKPkeQxgkWff4/hpTcMR52AByf9nnvumQx4MEo8apB1FW2ec41TpcVn8H9FRvRLn/60e/973+v+MwoiVkXK+F1XXeX3iT9HKXhon+cd227r3t4rv7+JnPl3brih26A3zzaJV973Pvfi73/v32PxjoUL3az993cv/+Uv7q5LLnGr/vVfXeS+u81Y7BgZqEn6GYcQGYo48UfuasQDyhoWl8HTNC+SjB/7+gWIzB3eaquJ0S4tjB8wgJHzg0FkLcC49LzhNNJzHX+MrAKTstsk18MJ5Z0a4zqtK41RDVKYdhSf+op8MZWNzirsS79RRQW1FpzE6I1K3HDFFe6OM85w8yPnfJ+jj+7tzCCSNT/TQLo3HM0QaZ1JkNduxDuYIPa72bNne9lg9gF6AV+gSOdlOFVUD5ww1gT9oum6tCNbQF8fFqAMAEEJvS84ZygIPTUGw1H1G8LVW8tbwMOgiCkfLAhvQ7BCHsnbt771LR+YoDjppXnXu97lpyQ89dRTqzl1gGngxUk7RZ/rTp3q3jNtmls/csq4k8lFehBT5Ixs/L+33+6e+R2D2s4d9+Mf+09AmcTXK5A3FkLqqV888YupMmnz19XD1NnFyFEZ+tEu4JOXKyqgSRvlkRHVlD1GZZhyl/L8dgwdZThOzjMBA+2fkT2cxWmRvFY1b92Ck/7Qrg8//HD/vY73HdUBuiek6BRHPRhk5IMT6bj4gmwRduBkjWwXRXoyHLmOow6g3uyAtmCjasXRiBsBnenherAAJSeaA0zDxunWsDq9WE0uziRf8UciJjnmVYJzwGgPUxDowaScVqxY4XtzmJoQhx5mHtM46NuVMdwEOlwvDNKAegkftZgEv//CF77gfvrTn/a28F7MNZ+yFPYwjaxCiurO9wiCAhjQ9AOcpH4jMgF/Xm89t9YRR7h37rGHczzyN5KBpKDGyAdtS6MDZS60H0XCQK7f06wGImwrWaQE8nVSeVnUAbpHQUeepz/FiY9WMJ0WEkYnLo8Cl9/+/Ofu8xdd5Db+m79JDnSAYKQF9TsMWn8z7lNzB2EcO+OaxAKUPqDoGWbX3HKcf5zWNs7VJFi54YYbvALS0G8dbzLn2fJ/F1uA98lPftJtv/32PgBh0fsggUgc7o+3wsfRfFuGvLNGOPi93ogL/I7REZQNgU3Y86rgZNymLqUSlZ1fqBkGMTFeXbnS/ct557kt//xnN3OHHdzf3HJLb08KciDiT4ppaa9j7URlfs2ZZ7rHbr11wnFifZIoeU3RqEDnA+8+6et8hcFG0lTJItM9ixB3muO975J9GLCOFdTSidOq0SSVOeXNkxcp6zzlrHV28WlQMOQUVdHaMisZBSe2nmJwbES7PixASSF0ZpnCtcbLiloODjYjPaz/0Lz4shUSZRQ+WYZrEBRVOXKDcmBdDmQ+1SsgHmRSn2dGjh+jTHppGfnXcLeCExv+Lk7Y4788aj+b/pVHEkTI8YsTLhRNc1Yiucok/vS4tvRwRnLnAzoIp5+EjjAUHKXKhLJSeaineJQCPQJl5IUguc8o35//4R/c2ttu2/svImttgJxgUNCgqY39wDkmeE8jKaiPjwj0m3oU5g80GgBhUBN9XtTTdWlP9KqFcPSDdRrxth3Zicl1cEnrLUSNsivH8+CDD17zMfQjgAUn5WFBSj1YgBKj64FJHHoUmQJFoELwQBAxSACh5/E/03MmX46MvaZW1RGY9IN600segSeA8WCB+CJTgo5wkRuKRmsJuAd60Cw4GY4wSLnpppsGGzXDuac+Q0c0iyTnU73V6nkNHTmR1fOKM5zkeKrHHeLBRr8eYRwz3i8A8ZGjwFH79z/9yV0QyenMuXPdgsWL/bZUwusrP/F8yMFVWeCEtzlwUW+7nPskJ5dgLKlXPeKuqE2//ItfuP3POOOtp+2J0CFuYxno3kVYv+Gi7H6yBqG8ifiojWB7eK1+hEFWWvCnNkhARbm3fMqnOqduvvlm34E1KlhwUj4WpFSPBSgBrJ9gNAC6HpjEIVDhze2MqrCgnsXheRxHFLaewqWnkwmmbe27777N9dJFaCFoFgQeed46bgqnPBorSwUV6r2VE9Wvh3oQsoINnD0xQOBOW2V0cuh1J/Rky8kn0IuCxjUcSY1QyXGNjxyUOSJFfkQ4shAGevG6UnCFk0uQSVDSR3fRYbH//vuPbG/4GkRBzZsrVrhzP/1pt+VHPuKOjPTdZBAN8REbMUi7iI/mhAFPGPw12GE1DHp62qis+cKv4UXFFpyUj6aUWodmNViAEoEzxToDRgQQtIULFw7W69sBwpcPaZpTHBodx916660+MKlqilgZ0FvPi/GSIIDK++QbzsNT0Cw4KQ8FKQS1rXpvR+gkF6GmqWN6WkzSgxtKI6qbyREqUM98nl75OArUBg0Cw3UZcnY12jWEk1tLObYIeskZDR541NLwjFJwa9OVq8fKuDrGPkBR7wJOOE5Uk9OU6gIF/J3vfMedcsopPvCILwJHMVMOU6ZM8U77qPe6hFOSRuk9Cm1gbB51WhIKlKt0jqgTHlOuF6Hq5bDoAp6uR335Nh+f4pa0liIPSWsMalrkz0gUHS70iI8y6sm99tprfaeAMRwKbnmkf1d9gtZ2EI0gNkpVDWMboOAInHrqqd4488QXpgCNW6+5FojDFVdcMRbBWRJ6JnyXjVGbkfIel57sYVBZrVy5stRecI006oEWwNTHrbbayvG0PeBpfBo1HZWAclwc93EJxOqETgJestzFxzTT3kftvUBtR9NybQSzRAhQxo1nn3121Yc//GGfIqept3U8iRyhVZGjQpC66uabb+5tHR+of+49cmB6W4wqOOGEE3x7Q96MZCgbZHHZsmW9LeWAvlMbP+igg1bdeeedq15//fXe3jWhLXDsqNRVFGx52cu65y7z+OOP+/qiXssGGUAeaL9cQwl5Yhs2o2o5od64R6W66rHKcq0aZJ680/aNekAu0TO0DaMcxi5AQdlIwVrjfQspND7HBVMo9aGyxqkxkqnCkVZnDG07bxCuoH1U9KMCv1HthCDorEKHYSslO5yfwJkyJCGrYdBSdlAt4oGREtsJIKqG61C+XULtdxw7HJtGQW1V7WHcGKsAhQYr5VZXL0yXUPlgjMahfM466yxvgKvuAeT8Fgyb4cyC9kbZlOlEc06cK85bpBe4Sqeszh7wkCqCvzYgh6jsmQBqq9iCrECA8kRmq2rX6E7ywjX0id7meqQy20sSVZVvVVAfyDltuCmos6baeRsgOEFmstqNkY+xCVDGcYRgEMIRplFWMDI8VTnLlGNoSJUo13EOVuoKCruGnLwyy0XnzOvE0d6lJ6twyML2QABUZ6BKuXLdUQuOqwom0VNF2il1W6dTTL7II3VatT6lfJt0+Isg57gpG6Prh4myYzs6ZVyCFmQG+TSGYywCFAtOioFywziNcpBSlQKh7GQ4+cQhIhgiEbSwbZwddOSJ+7e2uDpVlIlkrR/IIkEMxyK3RUZbisK5uU9dC8e2LrhWFc58UyjoKru+aKNF7WXdAQpw31XLK+g6bdfZ2B7yWfWoUhZcH1nA3oUjXrQ79pGQq1EfXai6A3RcGPkAhcagRmHkZ5SDFPUsl60kZcgotzSjKePfpBFpmqrKv6tIbsru9eSc/QIAnAgFC+jIupww2gEObZ1tgXsdJbmjV5q6K1s/D+Jc4YD2k7UyIY+S27LbTRzKl2tR3m2G9kQ9NGWvZdvSRl/RLciUgpU62j26lbpros3THqpon+PESAcoMvwWnAyGgpSuDG/nQcambJmQrOUJ6DhmnAMUwEiNklwNg3oYywZ57OdU4TQ05bCrLVZx72lwrVGxB1XdiwKUPHJBHSK/HJ/mmJYJeVJgS0rrCCobyhlZbSuqs7rKIwlkgTzkCWw1FaxKZJObsjMa4Rx3Wz8MIxugWHBSDqNWjuq9L7OnmHNhvPKONtWltMhLkwYrC8lVU85xWyhi1IsimWwzclTqkgONOnQdTeepIiiQs5ulo7iunHaOrVLPcK/UGwEZ1yLhdFY9chKi0bc6grBBoDzqDPTT6Cc3oup2KPvCNfLY5KpQG2kyD11mJAOUUez5bxKcJxp7FU5UnaAkkIuygy3OR/nkMZhyLOoIHKSk2woGddzbqOqozIBZSC7bHATK8aujPYDaX1sdzbxU7eCl2U/kVIGCdGkVsss540EJ39lWZ2ASwv1y/bZRp03pBx0ieXQ6dVm2HRaUB3VFakpWBHJM3dgoymCMXICCE4rwkyxqLY8uODv9UKBVtkHlnHnnX6scqzDqcTAWbe5Bl3PetBFpEuSmqjqSccRQ1yFvg5Cnt75sqnSO6gKZqfIesvQ926qUJwWtJNVVG3QE+SA/bYN80cbbAAEc9ZYlH9JLVfkSBEicP6sTAt+wLp3TVrnpAiMXoGhhUpkKDUeKhofgKyHcbTX6VYFRpGy7GvihJPIGEnlBzlCGSaNL7ENWkB2UMTLDsXX0wilfbezxC0GeUODjCvdfpaFUEEjbbaO+aiJA6brDIAevyh5zroFsNqHvpSfRnW2yNWpLbWpHlE/d7ScL2Z1++SnTPwuRPuln55EtZLuOulSeuj5q2wQjFaCoh7wsxU0jQ4g5p3py2CbhLvNaXUBGi/vvGuqVK7vXpp/yQSYlK6S6Agauk5WvtiBnpKtB7zDImJctk3GkF5HDqhyDQZGcVl0GIdIFbXI0i1Bl/mmH1AVJDnnd+p48EFBLZpGRNtSVgoE22fyqZgUMA/LSVAcAPhrlkaVPdEyd9VhF5+g4MDIBipznMoSAc0lB0tiShD1UouPkXMloJY0YtBnkogqlKaPVz4jjGNZpRLjXLsgmZdJFeSoDORd1oHaLjmyLgyWdTaqTNjqaRcBhL1OXoZs4ZzwoADlz+r9OqB/pMRI6vM5ANgny00RZpEGdtc3xla5ponOM8sjSJ9QdeUOu60S6fpx8xTIYmQAFBxHBHFYAUNYymv0M2Lg6V2WVdV3IIalqGLwppZcGRpz8dKXHhnxiWMYN7rtfYFsmyAXtVrJaVvvlvOhAzpk3CJeeJS9pepZjOHcVTmnbHM0iIDNltW3pLuqC+ktyKhW4NDUay3W5Z/JA4nudnT0hlFGdbTYL+R9tC7Rlb5uwh5KPJBQ4Ic91+y5trau2MxIBioa8h638MDjhex64blWOb1uhscmgdQEppiqNmgxok8ZTUC9dUoZ11E8bwVBW5SSjv3Bi404lhlmyyvXz6jmCBOoJXScnTY6rEtv6GX72a1qf8sD//Fb5Skvsz5vfftQdHJYJurcsm8O5KFsCzLS6k74nNdlGubZ0W1N5key2gTb3ytO+yhzly4v0RJzQt2tKhtF1ZXUsjAsjEaDQEIY1NjRyzoMA5zWCCoyq6OFrO1LUXbh3lALKoWpCx6ssB2IQkGHy0EbDlQT5JL/jNhJZ5T0jA1k6UbKapu+oE/IWD0LCJL3LubJ0JuciuJFzmZU4nxLnVaINk9ey2jHn5HxdhHIqazQD/S19wSd1lKTT2cYxdejRfsgxpw7rRuXQZKAm1E6ahrKgXNRWkU3VUd3lJB8utH18lx5rstOOsiEPRn46X1qq9CSlWgQNdedV/Ag9jYE0rshBaTsorLqMGY6alCGfw8plURQ0d62nBjkap94l5KQMvZUEuolz42xmQR5oG0k6THKEDCtYwLiT39D45yEemHDN+DnzgLNTlmOu++salBX5LltuqAfan+oImcAmhteRre0XVPMbyjesX6Vh4RzkjXw04Wxy/SrKfxDIR112LQ3aMflQQoao+6bKSTKK3pKeklz304dVU6XOH1U6HaAggOr1GQYZ9CLOtoxuWQazi2Ag2t7gmlKUGHFkk2vXOdddctmE8R4GGZZxQXJZVQ+j5ABnDlnkeroWhpL/0V1yMNhWFehX6pfr1d2jmkZTemFYlO+qoH6QF3WyJKUsp1hOWL+E3BUpe44NA6gmHXOu37Tdb4P8Kg/Yt7j+QI6aKifpPuzv1772Nf8dPVi0Y6UKyEuTsts1Ou0RyKkZ1uhpODJPY0LIZdS75gRWAQ2/SGBXN5KRJkAuJSthj06VKChqiyOYlzYY3DqRzqkS9JN6m7PSsB08XUSdUl2TtzrkRqBDkCF0aJjy6DEFwUrxc5DiTi3XQn9xj+zjf2RTOo2EPo3/rm7IB/lvkjrlIA3qlTyk+UFNlhN5OvDAA30eSAsWLPCyRH7YF8qmEvv4rBLkt83+UttYiz9RBXaON954w+29997uyCOPdMcee2xv62BcfvnlbtGiRbT23pbV4Vo33nije+2119xFF13kt11wwQVuzz339N/L4qWXXnKPPfaYe+GFF/y1YP311/efITvuuKP/3G677fxnk9x1111ur732clHDbkV+4ixdutR/nnfeef6zLB588EH35JNP+u/UR9a933LLLW6//fZzUZDiLrnkkt5W55577jkXGXu30UYbuQ022KC3dXA43+abb77GdbrCWmut5SLD6+bNm9fbMrpcd9117tBDD03VOWWCXvnjH//Y+2912thm66KL8lan3NQN9ZFEFGS7Qw45xO27775us802621tDvIZObM+T02BH/LMM8+UbteKgF+07rrrusjxX8MHQ+dsuOGGLgoG+vpJHMu9yJ7efffd/jPOwoUL3S677NL7rz9nn322O+WUU9wRRxzh3vnOd7pLL720tyeZs846y/uTVcoY7fecc85x99xzT2+LkUVnAxQ5xitXrhzauesXoACCRcOZPn26byhlOJSCBorQnn/++b0t+aFRHXbYYY06GgcffLCbPXu2O/nkk3tb2gN5Q+mUbUw47/XXX++N5/e+972+8qAgRYZNCjwNgoypU6f2/nsL5G/TTTf1gWvcsVKbWLZsmb/nrkEwOWXKlFbKUdmgT9A7y5cv720x6qYNjmZRkBs6y7rYAdEP9Nftt9/uv2+//fZuk002cTNnzizV1pbB0Ucf7ebPn9+o3KAr6RhrWs8TKC1ZssQ9++yzqzn2CqTj20Owgfvvv7+79957e1ve4oQTTuh9e8vm4WPkDR6eeOIJN2PGDG+fr776arfOOuv47QRV5EmU1TmYFzo2Z82a5TsmlScjnc4GKCgJHLgyehDkPDYxCqCRIBopPRE0xF/96lepTpp63Un0OODk4Cg36ZSq/MoIFstEPTwPPPBAoZ6XPFAPp59+uu+VQZmedNJJfe89LrNSlo8++qj///nnn/c9SVngwGO8kwIUGYWujkIgy3fcccdIOl9x1OHRZA/ouIPDQ7vtWoBictMsBAe77757o3LTluBaQQYwq2TjjTf28kmHL3axn5ziO6y33nr+d9jqskYvsLXY5jwjOHWiwKmtM05aBwFK12AOKllPm/tYFObaMs+V+dp55teWCddm8R9zH7k2eSg6R5G5lZQH5dIE5JvrM4ezTVCm5IvPquCeuQaJekirA+p5kLotgvJS5f1WSRvmVdcFdVWlLBj9ofzbprP6YXLTPE3LjextW/Q8Ni9cJ0TCFtbtSwn8QvLAus82Qt6afshCV3hbVFid42c/+5mLGkRpkTE930T/jEQcd9xxvlegLrg2oyVE05dddpnPA9N7iqD5n2nzzKuGoUpGf+gBbxMvvvii/6yyp4IeLEaOuH+GulkDwvQvetmU+J/pXIyQIF9Vwcgb0BPVRbbcckv/yeiUYVTNyy+/3PvWLbqa71GBXvAmYdS9TTDqwZqKKGDyCXuIT9LUFCZNlY8CSf/ZRrTexsimkwEK8x7Lns5EsMNwIMOCDFkyV7BOCIpwcGlURR1qOXRNOqasfSC4apNzycMGCGSrhiAThYxiRoaYOhLC/9dee6276aabShvCTuKVV17xn1Veo0okv6+//rr/NIwq6bdotq10Nd+jAnauDdAZ1ibwW0hNTvNmHRP1M4gfVResizHy0bkABQeY9Ro4xGVDkELvBOtAWMhEIMQ6gTq46qqr/GfR0RNg5AJHvMkGyRoP8sDoVlvgSWj77LNP77/qQTEjQ4yIMfdWif8ZaalacbNokocmdJWuBlaDYj3hhtFNkp6uWTe2yHpNFDy2OQhoa+DURjoXoOjxbGUtemakJByyxUniqQ+assOUnDqCFK5FcFJUeOkx4FF6LPZsGka1WMTZFrT4fFxYsGCBW7x4ce+/7jIu9WY94c2z9dZb9751g67ld9SQL6DpqE2gqcvG6jALheldZU7/rwqmexv96VyAwiMWy+olZjSGkZJ4g6dngik7mvJ16qmn9vZUg6aT8ejCIhBYHX/88X44sw1PoqEs6cGocw2P8RbIbZPD60Z+2tADO87I0ezaei3lt+l1EONKG9Z/MHXZWJP77rvPf8bfydJG+j2t05igUwEKRoWAYbfdduttGQ7Ndecxd0kQhbN2gKickYqqCF/4lxcez8fj6nbeeWf/uNs2wDPrgZdNtgUeB2l0h3GZn6se2LqmkBqr07aFxnnhvQ1Gc8hnaNv6D8O5a665xn/yQk9jNOhUgCKjssMOO/jPYWE6FcOBF198cW/LmjAygdOkF0iFMAJDT1aY0mBUgf3Dji7we54MpTeTf/Ob32zNXFR67ymr3/zmN70thlGMcZuf21VHeVTomrxphHTcpq+2BXUmNmlzbZrfmuAX0XmN/9GFtYzWcZqPTgUoUsplCuB3v/tdL9gsiC8K62E+85nP+JEMJV6glJR4zCz7tRi+KARD5JHzMKLDGpk2BSdi7ty5/mV7hmGkI8fY5pM3Q5cdfKb02hz2ZqDcm358bVcfI18lmrXR9Jv1jXLpVIDCex7KVg4stuct7CxSZ2QifEwu388++2y/roK3vcdhdIUghV5Q3lbOdLC0xHoWjkuaH7nJJpv4TwIP1qNoZIbvPKGLt6IypEwe6SHgWeNNPmc8C56ANsqLf6mbtr3vZZS47bbbet9GH0Zvm5hPznTVQR6jznQ09BIPwghTGSPDddMGR3NQpk+f7h566KHef9XRtTqtA8qd8m8DVj9vgf8FdT61c1D0nhYjB70XNnaCyDlfFQUTvf/KhbePRg7Dam9DVarqmiG8TT7p2kp623zbIY/kNwrGeluaI3JASn/rchRs+vszqoGypYzHgSrksx/oOcqYt/YXgTpJ049K6Kim3h5dFN4yzduuuwh1R3lXXdbU97CsXLnSyw7lHZcXZL8O21om5Lto2ykb2dgu+AN1gV5rul7y0gYZ6gpr8ScqsE7AVKmoYt28efN6W8qFHsL7779/sleTkQ0Wftf1ZCR6IuNTD1g436V50pQhQ9CM8jSdb0bEgHeRlAXT7BjJKrPZUO9A3SNzG2+8sS/DcXsvCNDGGW1s+2Miy4DRh3POOWfy0elVQ9vUSDBr6vKOwErmGb39whe+4Bf4I59aMMw0NUaZNfW07U/RkY6q0pZUCaO4jKjTa1zW4/bjoJOYkkwdDzJSTxmzaHnRokX+f0YLDz74YLf99tv7/3lHFVOBGW1vg63Ig8qEmRBN62b0ZJX1b1QDo15M0++KzDcOAUoXoLeI7FqvQfuhntrQC04eyu6h5nxlNBvkmB7crF7prvUuDsu4tfHIwfD3W9doI/LE9Yq0TY7lN/SA9+uxZ4S77hGhQai73KugytkEoHofpC1SrtJryA3lncQw12gCyruMUaUyoNyKtOOqYUSAujayQda7JPNN05k1KPRaGN0gUlS9b81T9poGeomHuT964RjZoSeOXmkW9dETtnLlSj8qo0RPtHof64JeTx5f3RTj1saRAfjlL3/pP6tGDwIp8r4lRnjo/e73QA7WtDCKMmXKlN6W9vLwww/7e+ryCCUPI2EErm0wusPazHvvvdevvbzkkksSe/lZB3XooYf6dUBFe5L5LSMI6NEqH/8fhxGftizCptza8qAEbBpPFZ0zZ05vS3lwbiXsU9fRQ1Fs9CQfnQlQNJ3AKrb9TJ06tRXKk+lSGMqywPgC754pCsqVxfU4pQQ5GG9kmukwGPD4NMJXX33VO1F1wktQMTRNMy7vGMDhJ9jVC8aqhACCtkDgm3fKjn6T54EcxxxzjJfXxYsX97Zkw7lxMJVoG3Ut+sXRZLpRl9lrr718QCid1AbQcQpOmKaZ9vJg6pr8I/uDvMNr11139Q+2QY9ynjoeWoJsMh2NlxG3gboelJAH2i8ceOCB/nNY6CTjwUAEodhLJaZlcq02yXxReAUDU2WNnDCM0gU0HGy0H6Z5tGGqh4ZTy5rKIRlMm7KQBlNjGP7mt5QLC0fT4Nwcw7F1D+E3PUVnHNu47rnf9Klh0XWKLM7Ub/JMR6CNFbkHyTlTZriGUlltNQ3aHtdhUW3XoeyqmuYlHZSlq+LoQS9peivUg2U8UIG8obM4X9XU1U7zQjuu4777oXIp44ET6BnVp2Sbdsp29AX/sw8ZKgN0Td32jush+0Y+OvWY4abQ4zSNfLRlmod64p9++mn/OSyMMAC9OUU49dRTfe8bvdcs2E966AK9gPQY0UPHtLRI8af2QFYBQ+j0yDb5AqkuP/p1UGbPnu0/eThHHegN9mXDdClGWehFR5boBWWUJG1UhFFD2gIPCIjskO9xh6p7wzVaRS9812G6UdV2Ke8DYqjnU045xY+KpOktRq6Y4sKU1pNPPjn3SF4a5K2uGRXIZeRYDp3nstDLqmlrTUFbZwooLFy40H8OClP1sKvYAB5egV5AvnlYCnWMvuB/Rs7KeI0B8oqc1l1+jPrttttuvf+MfliA0gcEmUa4/vrr97YUh3Og4MLpDKMwnzINPamlaTAmTDsp410T1BeKEQNcxEiheFFKGLespxtNmzbNByWPP/64V851BiegtSc8Na4pnnnmmda8Y6AucOwZ8uepWm1DstBvXRJTLtBpTMtgGgaOBlMFCbZ5Yg2BSj9wRCiH5cuX97ZUA0+WapOjOQw8gYxOhTzlWxR0VhFou7BgwQL/mQT5pX6T1qQgQwRbspEk1kzVucYkDcqXcj7ggAN6W5oHvYFta/KFo3TYadroME86xT86/vjj/f0gA1lP1kNOOG5Y8OnIe51rihQMKbg0+tOpAKUMwSwKPW4I8qA9jyjY/ffff3LBM0YfxXvZZZf5/41qYa65Rj6GQT3cRRYYgxzPfnPzUcoEJU2ssSL4Us91k2u8cIrGcY0Zj+6l9xlD3SaoC4IGZCNt3jfti5FK9BtrzxRkK/H7n/zkJ72js+F66NqqoHzpZEh66W4XUf1cddVVvS3loM6zIqOZTz75pP8cxE7yMmRkiEXzYWDEQ0RYY6KHOyRRRw848ks5JwVWTVKWbRuEMkdPbrjhBt/ur7jiiswHV1DX6Mlhgwp1GmaN9lXB3Xff7X3YLj+co25GegQFo4ryGwZNCRjEcaIhoGBZVM1TmpjSQOM688wzJ3ucRhGecd8WGE7FKRl2xEqBhqbk5OWVV17xn8P0MFUNwRcGgp7lqqAtqlc0CfUCj2Pvkob8q3yL/iAPrcChx4AjGyxmTmpDBFdMz3r99de9flOQHSa1gX7ggFTZCYUjz/nzTO/iXhk5wn7Q5pl+ScIpVDDfBggicLbSAshB0NP0ioxm8kAS0FOKinDYYYf5YJbrMt0POSLxnek+PDAkCXQJIxv04FcFbQCnGDlvGwTa2LYmOjZkM4YdPQGm/hEAZvlYtMfPfOYzvv1+9rOf7W0dDAXBWQE4vhsjwmUyCg/nqB0WonQBLcYqgn5TZKFfnKhBDLSQimvy26jhrbGwLlLGfl9ZsECt6sWlRaC8BimzKqBckIGiC9vjUF+D1JlksMji5Lph0R55rHLhMDLPNdLKggWQWeVLG+IcSsO06TZCG0ZXVIHaQF755XjaL7+hXsgb31mcWmSRsM6zZMmSSZ2ghMyF0D65Rnx7WZBv7p/7SYNjaANqD0rct/JNe25bW+a+qKOy4P64b+41L5IxyqgsOGfY5gX1pDri3qvUBZQr1ygi93VBniiDJuQRXcW1qaNh4TxZ7Z77pA1yXNyOs08L6JE96iuUlTjSM1lyyu/75akoah9V2thRpDMBipRmEeQcZglsFlIAWUYtDX6Tdm3yVZYiR+C5ThmKoiy4tzIN1bD0c0z6IaU2iBOADHF9fl+WIQkN97DGmd+TNxJ5rRLyLUPDZyiz/B83CDI8MoZhGqY+24iMYtkGjDpV+cWNexocj8yGx4dBShbUqZw61ZV+JwcC/RfeZ9hGqtJjsgVhe+G65ANZIm/x/LKv6jZRBrq3sspOdV3EbnKsynAYGeY8SfJD+sY3vuHvVfviOqRspBu5ZltBZ/Zrk2VDmav8yyCrjGl/XIdjkuSKbeyLpzTZlV+WJqPSRaQyA1+uyzmNYnQmQJEBL4KEsYiiDdE1iyoolMbMmTNTGzD7UcLDosZUVc/roGCo2qTUKe9hykhylNfBi4NCl1GlbIooPo4lsOF3SY46adB8gQL/MuQxL6GTQdn+7ne/89+/973v+fxQX9pP4jvb+B1tsgtO4yCojssiNO7x+qUcKU8S11XS8eSDfciW5FX7qLM4nI/fq86oL5yAfg5kmMeyAvg40pNhGXBPoYyRyD95KNMxqQPdH/kvA9VHnnZG/SIrlK0cV/IyqE7i2twHMhbKXignnB/ZzJO/YSAfXKvq6wyDHPQ6ZVb2sKz2yrnQF0kgA9RBWkABoX9HXZGvcFuIdFRaeVWli9RGjGJ0LkDpZ/BCJIxpwtoPXRNlmBcaFL9J+x0Ng33xBsd9Fbk3kHJKchiapGiZVY3qpGj5CgUGwxgqfit5LGJgdW0SylOOuhLbhilrnX9Qh6IoyD/lwLSfOXPm+Guvvfbak/eoRL6Q60HbbheRvskyxnlB1mVs5TxKXsJyzpvIG/IqeQnbEjLJNvZh2PO2E45TfjgH1+D35JP/kROlsB0o8Vvtz5ITzsfxoVOibciY7qWMcm8K2YIy2gvnQUf1g3LjOOpBda58kMosT9lNJeocuaYew0CmLNQW5ahyDWSF64ay3zSUO3VQp/OrNltWmas+B4V8IGuUQZJ+Q3eozrgO25KQThgmL0mU2TbHjc4EKFJQRSpZwjioQpGSQnDzQmP44Ac/mPo7GlGS8qdhFbkOyGiXrZyHhTyVaZzKgDIfJJBDdriftB6eolAuqjc+hw0MyN+g9S/5zuOMlAUGn2uGaf311/efBxxwwKqf/OQnrZPnOkFnIRd5nfwkKD/qVOUreVNC19AWkEVkICxvycTVV1/tv5M4TvlRsB/qKuqU44qS5ExkJe6J8klKaTpeZRF34BRUCd0XeRqm7JuEvA8rO6r/PPqOayVdTw4ZaVDbmwR5ox7j8hwmZAF5HFaHcI2jjjrKy7muhxwVtdF1QFsmb3XILdegLCiTslAbHgTqI9R1tAHOxXalUDexj+PiZSW5J5Ups8A1yZdRnM4EKIDwFFEQEsZBkdDmvaaOZ64sn3GjKGc37rxru3prQmhInDfeaPSbrIaN0cXQqAGjVPi/SkWmfIVKoQ3IsBWFuk+rm0Gh/HVeUlxO6oLrcv1BArdBCZ1nZPeRRx7x3+UwKj9VymibUfspoufihLKlRPmid/o5bpQ7xye1FX6roGLY9hDKQehUJAVNw4CMJzlvyBjXDnWxtiUd3wUkO8O05yR9R1lQJ0rUDZ/x8gthO/vzBDqDQh6wceSZ6yiQUBpUj6gM1NGIPLCtrTJBfZBP8lg1qtdhZAwoS85Fku4fBO4ZWUUW8tSP6hZZ4XeUHb+T7JRdhv3aiZFNpwIUDFkRARo2QIk3fP4npSGHD0OhayOggm1JkbQaTXgs0IA+9KEP+X2kUCnImCYJPg0udPjkAJCkbKtCDTKrnJpAPaR8FkEOWRX3wzl1/jxBCnKFTFD3qs8wFalXZEQOIuetE+6b/HJt0lZbbeW3hdvJW+gkjRNq24PKHPWJLMhwF0V6TDJFiuuTPM5A00gXJbULylbyH+pQvnfpHuNIdgapd5CjJh2jMoonOe93331375drIt1WJ9Qr9a1859GroDajzkUS52BbF+QgLRAvG8lXUTsqyF+oX1Rf/D+ozBZF96DEemE+9957b58X7o28DKp/Q7jHpM4eIx+dClAwklR4XqRsh4Hf06BkuEgIeBIoCAkjCo//SXyXQUxyBrknzivlwrEnnXSS37bTTjv5BsN5uX8h5R9XSPxW+/gMG73uISmoKQspmzZCGRaRH8pW5VgVXEP1laSgqU/kTbIcJn7H/ZA4pojRCB2xpsC5mTJlis8HbUP5pxx0v3xWKa9tBJmgPIrIapmEMhkmtnWlLrgHZIfE9ySko7m3UKcT2LEt1LddQXWXdd9p0P7C+iZxHuQQva5EuajjDPuUZNNk70hNwPXJX179NmvWrNXu+5JLLilcfk2i+6V+qkR6gU/ZHiXaUL9OEQUnYecTx8e3VQ3lxfWOPfZYf+2sxL2Rb8qWvCbJexK6r3GzX2XSqQAFAaHC8yLh6gfnlaGi4YUCyLZwn3oSEfAQfsN2BFn///CHP/TbSEmNDwEmzZ492/cik1cdr4Rwy5mUoKM4+Z/88J3tXBdjot9pn45X2VVtdDl/njJvApUjZZ4HHZ8WkGaBfGDwKfe4rMSR7IR1w2+kzEnUrYKQfufLA/LBees0CnEkk9yX7pMykNxS/pJpPiX/44CcxSbrB7mUjlKddAXJVL+2zj2qLfDJ/6C2J33eBdC76AbuAZtVVNcjc/yOckDusvQM8nDEEUf4Mtpss818Z4NkhbKXzaSN102oN/LobvI4ffp0fzypq3oGWaXcy7APaST5KGmJYylb5Er6Q+2K+mG/EtvqlhXyJDkN19yRDxLtR7ohKXEP3E9aeXNfHGMMTqcCFIQHwZAR6QfHIiQhUqBsP/74430PEMchiFKsoVBJ0fGJQC9fvtz/v2DBgsnGRVq4cKHfHibOyfV0Dp5axHFqFElJx7JAD8Hnmmwjidtvv90fw5Ckfse1fvSjH/nvUlKUU2gs6jC25DOPUWgK8pe3HKRMqcOiqB6RjX7yyn6ODR0KFKTKMq+85wXZ4HokGY4mCOuCe5Qx4DNU+qHDgSxTNk3muy4kf2XX/6gjO5FXDyFLHMtvSHKUVP559UWTqE1LV9FmwnupCmyoyi1Maqd1wf1LZyoP1Fs/PaE6poOQT2x0V3ULZUC5NyGvlBmyR2DL9cN6UMIWPvTQQ35/6Dsp1a3nsLfkC3vTD/KmDkd0hfLM/0nyovbHb4zB6VSAAlR6nl5FGSn1yMaVF4p1jz328N/nzp07eSyRNN8FQsj/ccV/8MEHTwopSef+yle+4q+l40HXlxIkKDrjjDP8Nu6FbTx2VUaGc0nopUD5JH8KNkgo09CB1T1zTHiv5C/MT1Uo/23ugaLMySN57YfKkN9kJe6X8g0VlZxt6oI6QlGFx3B9/mef6rSOOgI5Y2FAVDeS+/g9S94pk7jBopzDcuXYPPXYVZAVZDDUB0Y2yAOykcfpiIMsqs3zSZuVPKJD21wHymeYR7XzqvUx7TTUh2GPeZVQX1xPOkEJvZZXl4a//eQnP+k/2dbV9kZ5cA912ZIsKEM59fKT2uIbUD6q97IDI+4bHcT9GsPRuQAF5ZHHsZIAfve73510ABctWrTqmGOO8QIk5a2Gw3eGeZcuXeq/CxmsEP0uJI9i4Lo6jjxhTNnG/3Ji+a6k90QokRfu/atf/ar/X9fSeXWfShitsPHxnd9IaZD4XhYoH67bZqexiPKIl2eeFJYnTrjkJyvJGaoL5anOa4aoDtLaseQozVFAhvmtyq+IQ9I1aLNZZWWsDjJDeQ2jg5A/tRH0xMUXX+y/c962OFghyD75Q9/HUeDSVFsvA3QAuhR7hZ2UvQ4T9cW+ovVOjz6/33bbbVc73/z581f9/Oc/7x3VHpL0YRzaAOWR59hxhHJR+0ZmykZtrs1+UFfoXICCQGEo+qEeWqY98R1hUXDAdz6VOJ/Oy/80cJCjRAphf9zBlcOEQ8H3NEPGtXUshkV5UUPhk3OHSlj5F7oPOWW6N5LuoV/iOPJRpuGiYdLwk0AptEVhql77ObWUK8fkSdQRdZdUnsgE11QdhSkMIOuAvKr+m4L7Jg+hTMdRHWU55vwemQvbbVq76zIqiyQH1HgLOQbI+LCgq2jTcmS+/vWvT37nsy1yJmeLNpDUntivoK1uXVMW3BflHibuGd1AHQ16X/yOcqF8KCd0t2RIabfddlv1/e9/P1NX1QEyLZ+gn83mvjhOPoWxOrI/yFDZPgl1w7m5hjE8nQtQ1Pj6NVIJYWiswm18J4Xn0X417NAghSiACJHy0HcUn45TYr8S/wsUJNtQjmGDkQKNXx9lyTaUcxz2yVkOr825db+DKvR+kFeVHfeBEceIsD2896R81w1lHi/XcUAy3pSzK2cjj/FUIN+vrSNr3FfYXvm/bONTB5SP2mqYfwUp5nQkI8eyisAB+eP8LASnXqTPpO+q0qf9QD5kO7LuW8eR335tqa3IZvNZRrAg26rgJIT/eWGspnwpffSjH/UzMkKfokpky1XHJHRiPL9JUFYc39X6rgr5j1WUDfWCTIW+nTEcnQtQAAekn4Ml5yZszGq0UjAoABQ720kyciiEUCnEBS5JCHU9GgCJcyk4UOIYKdkQ8ogiYl9c+WAAOS/761KMRVG5ka688srJslBSfamcyzAww0JZkjfyM06orpoKEmkHtJ88RlYKv0ggSXtWoMJvaT9tkLd+kMewHZFoRyHaX4UT3mWakGnqILQRfOf6dcqarp8naKUt6fhxlx/uX3XWTw9Rn9/+9rcn16uGCT0jmy77PEywyu85D/IsHUZCj7GtqP3n/vhtF/RfXWB/KFM+y8bKu3w6GaCgkBGELOUiQQxBkbCNhi4llZZCBREaPoSPbQhjiM5dtvIP89nW3hDKR3lUonya7F3MgxybNuexbNQuihq7MpCcFJFjtauiss/96V5JyCPXb5vxIJ+SQxLfs/KoY0OdNM6oPPhsAnQHei60F1XLGnZPsl3kvvmdOo/GrWNGSAdRfv2Ckzi01cWLF0/Wc1jnaYljuFZaSjsH26nbYWw+94efhDwWvddRhPpT+ZbdNqWH2uqjdZVOBigYBYQhKxiQAgiRs7NixQr/ScNFoNR4+QwNHp8oirBxS8GxPUSBCwqB65DKCFY4L+eM96a2iYcfftjfuxIvvepCQ6VeqUfkYFygTVBHdQdlw8gxvyviiIVw3bgDyXfKgTZKe8ZwJaWyjRjyxnm5JvfDfSlP/J/3eqGOGmfaVg7ULXkJ61XBShntDfngXJLlQe9b5UZbDG3bKBO37cNAPVOvnAvdQr2wDXsv20/ZygfJkzgPvytb73A+1fW4QzmXUf9x1IlM/Rnl0skABRC2LMdSDT9ECkRBRpIiYD/7eMkiv48bFv6nsScZHM4v46HgZxxQeZJ4/LK+o3TbjhR4F/JaBsgu91umEcwD7QHHbRCHiDbJb4eFNsu5aNehE9lUoi7QGYOUCfLKOco2tl2A8pIcU35tBN1P3YRyhm1gG/oyyxGVw8s5kFd+I4eYxDk5xzDIqeK8ZQRPbYb7U/kNW24h1AvnpK6SoB6pv6ZRXY+jrhCy86QybZ+VbbWsxZ+ogDvHXXfd5fbaay8XKR+32Wab9ba+xdKlS93uu+/uDjnkkN6Wt7juuuvcoYceSnDW2/IWTzzxhJsxY4aLjIPbZZddeluNLKKgxJfZSy+95C699FK38847u6lTp7rbbrvNRQ3XHXvssb0j28nll1/uFi1a5CJl4/bcc8/e1tHkueeec8uXL3ef/exn3TrrrNPbWi0q38hIuO222663NT9vvPGGW3fddVPb+jDQ3kMi59c9+eSTvf+K8fzzz7tnnnmm999bTJ8+3W266ab++9Zbb+022mijUu5DOjByvty5557rNthgg96e0QUdc+KJJ3o905X2+uCDD7qHH37Y3XHHHT7fgxAFN27u3Llu1qxZpd0zugDdfP3117vIkU60lWlgQ3fccceB2nOd3HLLLe7LX/6yb38XXXRRqfoDvXT44Yf7MjjvvPN6W9+Ca19zzTXukksu6W1pDvk8XbDHVUDdL1mypNT7l/494YQTEuvfKAEClK5CT1Ja5Epkm9azQa9G2q3TO8e+celRHxb1IKisVbYknnrCZxd6F9SrPuq9iXUj+Ri2J5Hz1D3q0wVod8gtKU3fjQqMKOheu9pOsS/UEz35tAkSuofEqJC2kTiu6jolPxqNY5Qhz/XUpvlsK8gHZUo+KVfuswq4DtdIArtHHtoC+SGvXbDHZSKfjlSWDVEboM1UJVtGh6d4AUp8EKHD0PG7NDRH3ehPUlmhtDXVbcaMGf6TY9rgYKY5NigZlA3OjymccpDxxkEwqoN2pSksOJujJr/cj5wr9Ehb7498ofe6CDZROpuyzipjBTRtrAfypPxxP9xX1aRdgzbZNj9iHIMUTUEvqy4sOKmPTgcoCAcOZdHGRi8RApbWW4RDxXnrhHvpmrCroSaVI/eieeLTpk3zn6qrqnsF05ByTguUcKjJoyme4bGyrB912NTlmNVB6Dhzf20FGUfWux6MU8a0WxLfk9oujh772wT5VN4lK03rHfLRtgAFFMCNS5AiP6QMnSifp80dJaNEpwMUQBEhMGk942nwm7QFczpnlZBfFISMrxL/c/0uQF77KWCV5Xbbbbdq3rx5q90rioM6KFp3g6DgBOWchTnWw9PmMkQemwqQ64Cyp9zVvtowajkI5Bvdwn3wWYeOGAbpuTIXYTcFZS99STtGZ4ZypDppA+SLsldgQr7bIPPIK/lpqy0fp1EAZANfZVjUJvg06qHzAQogfDS0IqBg05Rs1sjAsKA8FdGTyDsCjyLjU4q2nyPdNDLIecpI5cm93XTTTf7e5EQpKTAr27iE5Z1XsViQMjgqO1IbHIU4yNkoBygCR1m6BLlvY10kQT7JL/km/11x+CXzo6QvVBeSI/Qo+pvvTTve9IaHdrRtMk7+yFeb5Zc8UrejrhOx48OMntCm1VnS1oBzVBmJAIXGVVQZZAUhOl9Wrx37OE4pD1IInBuBT/odjQGFwTFtBUPAfeR1+IF75TcklSv3Sj2EhoaEQqEuBzU4nJ/fh0FQkbyCDIwFKfkJg5OsttMU5Ik6zdteuw5yi0GlPtQG2uTEhcgZJp/kl3x3pd3JlhTVMV2BekCfyi6RTjzxxKGcvkHgepSx5Jn8kK82ygnySx7brmvQibKTwzjfnKdLbTYvod9St7wbIxKgAE4uQlSkgaDgaJxxNEdTYDwxQkk9/0r9giOdk9RveLztyo38Fy1rkAOb5PTzf1qwQtmxj/JISpQ9ZaZ86bd8x6BxzCDwO+W3jQ53mwjLqq1GCjlBLtrqpFcF9UH7UNugndCe8kKdFjm+CJyX/Ki9dtHJkc6qWkdQLlyrSUfpjDPO8Pc6f/58/yl5ot7QAWXVHefhfNLruhY2G3vQdn0smeiCLJNHdQ5Q1oPoR+n+UUI+m9n/5hiZAIVGRSOhgeUFBahGKQGUo0WDxRCEylGJbQgvypNjUEZp1w0bv1I/Yee8eY5rAjl5gzos1BPllXVvHMN1pOSLJJQJdVOWESefyAOpjfXRBpAFlX2bDbLkaVyhbqgr9YSHei4NZJ5jy2pP5IFzcV2uL7khX22WnSx0D1Wjdka5NVVWyA4JkI14AEFiP9vYJxuJXU1L3BfHobf5neRTiW3Ygy7pX+6BeuoS1BN5JlHeeZGOoA5HAWSS9sw9IZNGc4yUtZYCL9K41CilDElytDCiKEccGxofgpsExyb1OrBdgq6UpxHrN20DRURZUR7DUsTYyJBRdvFEXWt/VVC3qpMisjXqqI1QLnw25TTlhTqUczXu0P4wvqEzKEcwbEv8z74k/ZYHZEJtl/PrWlyX63fJ6UyCe+N+BnVkiugtylJl2IQe4vpcm7aeBHWpYIN8hvWdJ9E++Q2/5zxtkw3un7yF/gJlkdQ22Me9dA3uUR051Ece+VQbKCLLbYR7lz1DP3X9fkaBketOVOMqqtwQRlKR3yHQ+l0SygtKjcaOYusHARO/STMCTcG96h74PgwyYl0iVF7U67Bl0HVoJ8gD5dGVoI28dtFpqBrqkjqMO5TU75w5c1bNnj3bt1fpurSkdk3iXGHwQ6LdcJ1Bg50mULsPnVLuQ/fAvbINvV0UBX9F4TdN9OzKNg3a3uPy0rYAJAvZP+5fQRR1gFyQwnvh3uqoI+pD+SBPJL6zbVj7xD2o/aYFYUJyzG+6CGVFmaku+W60g5ELUBA2GhZp2EYawrlQCFIGNMh4QrgxXmqoHKvv7Od3WXCsGknbjLic8zKUkBR8F8EJo37GuYcFg9S1MsCBQH6rdhpGAeqUOqasKLOddtrJf+ZNcpZo423sCc8L+UbOdU/cj8oEZ1WODf8P0g6kU4ui/JA/PgV5ID/UXZm2T+jeu1qfw0A5c+9xu0U5IwvoQiGHnc+8UKZ5jscHUcdnmLi+8kj6xje+4dvesHLA/aoNpAUqagNd6ngAtd9+92c0x8gFKCDDguIYFs6F4EqIlVAGbEfAlVAcKAr2oxxC2CajFkfX0Lnjv22aQRRuGigAzjVIj2NboL7Um0adV+EMtBHuW0awa/c9bO/vOILDS5mF+oj2y/Z4GjXDLhtCiusq7pdyQWfLWdT98zvZA9kHtiWBDkmyUQoE+G0S/IZ2yCf5ox2GzqnyVjbYNq43bqi+qeskqF/2q52EQWzoI2TpS9VfGsigfAvqgPNyvaR2x3ELFy70x5L3YSHf5J/rck6uHZ6XfVl5bxuUWfx+Rk1/jQojGaCAHJJhFbUEGeXE9zwNPskgSWlxLpSRkhoJCYWWZsyaAiVYRjkKna8Mxdk0kg3SKDu+MlCS3y4Gl8p/k3JHOaIH4rCddtG2ti+dNW7Gm/qQXk6Tl1Cf8yn0vxJ6k/PFYRv7k5xe7AD7OFfSb7EbckDJh47nO8crcCkTZED3M25wz9x7VjugHgkMQMFGPFEv7JMvIX/iueee8/vTAiDgWPKhICgN2VeS8lMWyBb5UKDE/XC9q6++2v/fdrBbqksS3y0waTcjG6CAev7bolTJDwpKDZxP/sewtNFhJ0/kE0VUFjLsSYa3i6DgMCyqzzbW4zBggOR0yQHqInmcjGGgbVNOoeMRLyvyQHsPwWiqfMt2KIaFdl9m2+8KkpWsTgfqVvVGUnAp/RYmypBz0pYkE+pAS7pG+NskfcL2bbfd1l9fznDouCJ/bCsz4JUt7WLnxLCojLNQfVLmoQPPJzLBOZS0X+moo47yn1nylgcFJx/96Ef9p2QCnac8sB25GVYPcm6dTymUwbZAfXDvKnM+aR+j4n+MOiMdoICMDZ9GfmjYKDKUbJmNGaXGeUcNHAkZJD7bqKzzQn2Tfyl16qzrPU0ypmn0k3H2c460epVTGCbkXOel/NgW6iE5fXJg+V5mWxsG8kF+MO7jBHqP+6au+xHWOQ4qZYZ88D91yn7qVbKnhK7Qb9MCkPDYONqn9hmvo6xzD4ruoS3yWScqT+oySw/S3tWON95448nfxJGcqP6OOeYY/zmMjlUeP/7xj/tPzs11kA3+1zbZKI4vA/L81a9+dfIaJDrs0G1lBsh5UdlS7ipf1UuZ7cGoh5EPUEBKI0lZGGtSVXAC1EMe4z8MKM00R7JquK6MOQoSRd0Vo065Ybioe9VTl5Q6+VdPIQlDKTngnqiPODiWMuLcO/XFPSsJ6ZCs8qDd6Hc6Xk6HghH1QIc6CfnQ/qzz1wnlFuZ3XJAs5Llv6lZthfTDH/7Qf6bpTTmRfEpHJKHzkSQ/gvOG+7l+/FrknX1lyZKuSZ7HEe5fjj2J75QFskJdomf4P5SF9dZbb9X3v//93hkmdANtXKPtJPQRdcVnkm6SLssC+ZAska/TTjvNfydfnFPbQ1nQ/rKQXOselR8SZcI9cwz3GpfnYaBeuC+uiR7V/ZL4TvmNm/4aNcYiQIHQITDSkWOSZmSHpY46kKEoUxkWBcUpRU1+uOc2KkvqmHyFhpO8Nll2ReEe1L5JGKfQYZBzkWTsQ6ciKbH/tttu89/jTkRWGXFseLzyA8pr6CQgL2xrKrCOgzwov+OE2mya7qOecHwkU0rUm9pQvOeYc8mJo0yRG34flyehPHBMHMmJEnmJo2txbBnIJuAIjjOq43jdk6iz+PYk3cI22n9YN2wPdRPykSUDgvrQNTgncqbrKIU6BpDNpO3DIHkLIS/cI/u4l3hZcF9sJ98co4Qt4nckvof7FLCpbOLnYz911CXbZWQzNgEK0KARZgQ8zQCNMyoflHAV5YPS4fwomypRHbcBlCWKE2eEfPHJ/wpW5LzUKY9cK3SolC/qv2vtAoOrsqXO486hZFr7Q6ib0HDKcQgNJOc+4IAD/H7KTFBO/Jbzx6E+OT7cx3m4voKT8FxQV9vIA/em8hg3VHeqL6W488n/ai/InMqMNiXYThlKxjiPnCf9H4ffxGUSOVS7RHdoHwm5iaN7SNo3COST8ykPRjKUj+qOhxhIdpAJ6iStPiRb1LXKWimuX7gG26TzuJ5sCWTpQuDYpPMOg+Qt6XohyD5lwPEklY/ynJXC9kgb4PfcS79rGt1mrAIUwDFA4FEKJtwToPTkOFXplMgJK1M5JsE1UGRtA4UaOiykpUuX+gWvl112We+o8qF+uTaKPXS0UPps62o74L50P1kyxT6OCWUbWVywYMHkdsonHjRQLtTV3Llz/XEivC6/C5F+icsf21TvSXnFeLMPw9s0uof4vY0L1EHcaaK+cTSpOwUZIdJtcqTC3/M9Lls6p5DjKRmhXSblgf177LHH5LakvJD/tH1FkVyGgZeRDvVMPRUpe9pZWNeUteyxHHE+2a5jkAO2ITch/B/fFqLzlqnzJW9pAZhhDMrYBSggx4MUNxzjBmUhZyvLySsCyplyjRtzGfFBFFkRhY+DQN2GFPl9HVDuKHbySpkoURdsYx9lSFnlKS/uj+NkzHBwVA46N9/lZJVpoJqCe+S++smt5E6OouSddPzxx/eOWh2Oo7zkOFCWEAYn7AvhN9oedxJ0vSxHj/3cU9OQx3j7MfpD3SEbasM4g2ltV86mjlU75TMMDGmnyLfqhHT33Xf7c6fJihzGMpBDO67BalOgzyUTYUIO0DNZQUga/IZzxvXWsEjeRsGmGO1iLAMUoLFiGGhYKOFBGnzXwfDJ6OVxgvMgxy5UqigwkCIb5Fqcs58jKuS4khdAcfK/oK45RvubBjm84IIL/P2RL/6XYzxowvHBmFHmOBdtC9DKIK+xpVzDsuE3enZ/XKYop9B5RFb0HTniU+cJfyvZJk9Jhprf6Xxp8Hvqvkm4f/KBTjSqAzmQnJGQDWSoDDskPTIskoWyHVojH8gCtlJpWNSBIntcFtJ9hlE2Yy9Valwo4bKc9LaD4VFwhpEswygCjjDnxElDGfK/HDr+V1kXLWeO53dxZzINGVY5e8qXrqt7HyQvVYAzmOaYci/kUYkyDBPlGu4fJ6i/uNMvo46sINtpwTLH8D+OHN8pR/UWk8JOi1BeSAoeCUTCttQvAOkH5yG/TUK5cS/WY26oPdA2jO6jgBidVSZt0FvGaGJhb0TYM0ojLrsBtwkcNJSJgoiywDHTecMeZLZTtmyXwUtypDkuLT8aEYn/juPTHKlQGXPP+r0cMO1PCwzqhPy1IR9dQ4FBVkL2KF/VdyhDCjTCxDnjciYZUjAjeQoT+4YJTgB5pp00CWViPeYGOhy5pv0Yo0EV9YnO47xmv4wqsAAlAOdVTjZOyLAOR5vAsZJDFvYOl4Ucf8otDtdmn1LcAcQYKoBJQsFjHLalKUacPV1LDqUcQClpObhhQNUE5M8UfHGQYY2UUH4kAgXKk8A1lHEFGSHsRyaSjs8CedH1kNm4PHcVtZl4ORnjh3TuqMi2MWEv02zsoEhnoIcNo2wsQImBk6Ke/lEIVDAwOFLcD0anKoMTjlgkoTxImZGP5557zjuUlLP2kfif7YJt/D6Ojk+qH87PPj6pQ52XTwUkUq5lK+2ikL+k+zOMOkE/0Ea6rO+M4UH3ohdDHWx0H+q07M4H2XXTGUYVvC0SLiNgnXXWcccee6yLHG135JFHukMPPdTtvffe7rrrrnMvvfRS76j2c9ddd7mjjz7azZgxwz3xxBMucsbdJZdc4rbbbrveEeVyzz33uIMOOshtsMEG/n/KijxcdNFFPh/nn3++3w777befz9dmm23mFi1a5O69914XOUYuUp4+7bPPPn47+Y6CGP+b6dOn+88koiCk9y0brsP5uS7sueee/rqXX365/98wRok33nij9y0Z9tM+Z8+e7ebOnesuvfRSd9JJJ3kdaIwn6Gx07xFHHOFmzZrl7R56uJ8sGe1HtrUskAvs+oUXXmg6w6gEC1BSwNGOByobbrihN+gPPvhg76h2QVCAs43Dsddee7mpU6f6wGT58uXeGQ/hHjBGZfH888+766+/3q211lo+UVbkYcmSJe7FF190Z511lvvc5z7nj7355pvds88+60444QT/P0ECjhHK85BDDnELFy702+H111/3n5tuuqn/TOLJJ5/sfXuLRx99tPftLbge5w85+OCDfeDSZPBJ2RlGWSDLS5cudeuuu65vi3xPku/jjjvOt0/k/6c//anftmLFCv9pjB90BqGzp02b5v7H//gfbqeddvJ2j84kOumwLRaodBdsnzoQy4AODQjttWGUSm8kxeiD5rBrHQefDIFXNWUqL+SLKVOaM8wUjXPOOWfVHXfc0TsiGYZmy5xWxLQppkrpvHxnClU45UvTrjTFin38H04lYKg4nGqi31D2IZyD7SSml8XRNAWuoSl7um4I52Vfk/VYdl0Y4wtthraDTKsd8p1tofxL7mlrDz30kP+uFwDafPLxA9nYeeedff1LXtChyAmfkinkxTD0ZEz0i2FUhQUoA0DjpGFKafOJk4xhT3KCywQHhOtjNBQskbg+AQHrOsjP9OnT/TEcn4R+UwTuDUee62C4SPwfBiH9CMsnHnyQV5wqtslJ0jFxRajjuFfKIQ7b2Accl3QMSNE25ZRxz1xfZWAYw6B2EbYX2qvaAPJGku6ifSmIWbFihd9OKtKmjfaBnkW35dHRHPuhD33IywCJICRuN/hfnWAWwI430h+mJ4yqsQBlSFD+BAJS3iQaLo4CxgFl3s9ApMHvZGQIJsKAhO84FjgfoTHheuy/5557fD44jvOEcDzHhE4xxyhxDvZxfu4jvG5a4ri4UesHZcJvdS/kl/9D5wp0fRlbykLXlHMVli/HhOehDNPKX8eGZVEnch6rDmyN0UeylNTLrX20HbUZvqsNqrNCx8XboNEN0HVp+po6Rt+FUN/Su6Sk4ERIVtC7xvgiXwfZMYwqWYs/kbAZJcD83MjR9OsffvWrX/mF46zLiBM1cL8+JInbbrvNzwmPExkFt+OOO7ptttnGzZw5c425pKwniYyT+6d/+id3xx139LaWC3mYMmWK23777XtbJtZPMDeZPHNfLMQvAr9lUSZEhtVfI75ehrnRzJ8Ny4VrffOb33T333+/nzcdBRiT60tYlM/8WOpCC+LTYKHfjBkzVvt9nbA+gDywTqgfrBt6+OGH/RzxOXPm2MJEYxJ0D+sEaCNpcn/22We7U045pfef8+vrrrrqKr8OJXJcJx+gwbos9Bb7y5yzblQLNgBdCOjR3Xff3a2//vrutddeczfeeOPkmoEoUHFHHXWU+8EPfuDl4YMf/KB75JFH/FrAm266KbPOWdPEuc8777zeFmOcYA0u+uLCCy/0a3QNo0osQKkBHOzXX3/dLxZ/4YUXeluzIRiBzTffPJcjivOBY0KA8F//9V/egf/Tn/7kXn31VR8ovfzyy70jV2fbbbf11+I6a6+99moBSN484Byx4BYDeOedd64RYJQB1yDwwthuvfXWbpdddpncjmMGKEzKGqO7bNky/3CDfjQZoOjaN998s5s3b15vazKh8wHmJBghPG2JBc1ZjgML5Xl4BeCkLl682P8flyXJWlNBu1GcUD+k6WA9dQk9vfHGG3t7RN3/4he/cD/5yU9y1bcFKOPLLbfc4p/AOUhHpGEMBAGKMRrcfvvtfuh1q6226m2ZgCH7b3zjG34faffdd/efX/nKVyancDHMPwwa/o+MXG9LfTBtIe80hThMieA3TcyrZhoN+e6XV6Z/6d4YVmeqBt/Ju2Go7SFLfM9iiy22mJQdyVF82g/yyHZ0g9F+qC/pv6xpN+gR6pTjSN/+9rcnp/RhA/qh6bA2/W/8UN3nsVeGURYWoIwQP/rRj7wS2WeffXpbVkf7lcp2yjFcTQQogNJEicadrX6QX8qi6O+GRU5lP2Of5HzotziYhoEMIQ/92p6cDJK+pwUhBPkko/2wBjKrLkF6jnTKKaf4T7ZpvUpWYCMkZ3mONUYHAlvZIL4bRl1YgDJC4FCgREhh8IEzol4P9ZgplRlQcI2u9a6oF7lfz3PZyGHop/DlfMSDEdW1Md6EAWy/tidZ2nLLLSdHTdPk3uSrGQgCioxcUefUEympLtH9CkL45H+NyB5//PGT2/uh31gP+nhBXUsXWGBq1I1ZoBFBhmrp0qWThkQGi+8oGRmWxYsX+2PWWWcd/8m+uh30tiBHrU6oB67ZzxFRL3eSU6AAh2OM8UVy0G8kDg444AB/7H777ec/szon2F/EUTaGRyMURXqp6YjiN/EODPSFzkciOJUOoV7ZNmfOHP/Zz/Hkd+akjh9hveeZbYEPgU4h2fRjowwsQBkRwrUUMlpyMEJHl+8yUKRtt912cl8eJTRKoFC59zzOXZnIqeynxFVPSfWi+jZDMJrkDTxpt8hBvw6GX//61/44paxec42y1t0uxhkFE0V1sEZHQj3AOSQX6BAFPMiIdMonP/lJ/9lv9ITf6homD+MD9a7gJE+9hzKnhNwUCbYNI44FKCOCnF45NnHnFkUhBbLTTjtN7uNzwYIF/pNET1y8t35U0f3XOQpB2VIP/RwDBZVpx2l/Vi+40T2QDxwCZKQfCiRo61lwTrXxbbbZJlPmJZ8cY85FPQwaEKqDRbJCnUrvsy3U/ZIp9uF4Hnjggf571oiIbArJgpPRBlkiyKXOr7766lUf/OAHfb3nsS+yoyT8B2QqlEPTI8agWIAyIkghCBQOyiFUEHJ+pExQPqeddpr/fuWVV072mPCbceiZx6DX7eBrHUCWYwCqz7TjLEAZPWifRabSaP1U1rHsk2OqlBbQoCest7xe1I6pd+q/CHIMWUsifaG6e/jhh72uUX2SkAP0hUZfw84P7AXnY38YzPCZRxaNbhIGtfE0c+bMvvYFnSFZicsJ/7Od/RakGINgAcqIgLGJ97ZLQcSNnxQQ6UMf+tDkNC+UiBxokjm/w6OgECNw7rnn+nJNcxAF9cBx8foMUd3aFK/RQY5CnuAg3nseJ8vx4Lch/M81tX+cRlGbJOxEitdJHr785S+vVq+MkhGsyGFUohOKOkWfkyQX2pYkJ5wDmRgkX0Y3kA0hsT5Na9T22GOPVWecccakHGUFz6EsJaFrYMtMpxhFsQBlREhTEmxjX+j08D8p7sTMnTvXKxG2SznxO1Msg5Nk/B955JHe3mTkLGYFiKpX65kaDVTntDvaHymr3an3PGzXsGLFislRGNKnPvWpRBkk0d7DY7m2pgUZ1aN6ydPJQKCAs0cH0pIlS3zdqd7iiQ6nI444YtVtt93mZUgjJlkJBxJ9g9yZThl9wuCEd6TJ3mNXpHf4lH5IskXqSCNl6Sp1esZ1lWH0wwKUEQCjkqZEUBwYH/bLEPI97J3n9+o9wbihvDCIUk5ZPShGOjIClB/zelW+GIO08mQ7x5HSjskzwmK0H+RDgWZawolNchjVNv/xH//ROwBpQUiY1l9//cnR0jBxLgITa+P1ga6O10NSoo1/7WtfS9xHeve7371q9uzZ/jhGUA4//PDV9ocBJ3petgC5Iw/IoAUk40UYWCxcuNB/YpOQhTjoBPYl2Rp1quQJPCR3JmtGESxAGQFQIiiJNAdDAQxKgmP4jkMTwvaPf/zjfp/2P/fcc5OOD06MKZdiqOz0hn/KUHWRptQV1OBAJEE9SdknGRSj/dCOVIdKOAE4jEoEHQpCQlngtxdffPFqv1V673vfu9r/9LJ//vOfXzVlyhT//wUXXDDpmJLosLApPPVDmYf1pIQMoDPCpH2hbuYx8f2cQ+QEXUMS0j1ZHSTGaEO96wEJSuiELHmQHMZBjtiexy/QKB56zTDyYgHKmCCD9t3vftd/onTioGjYp15WFBA9cPot/+dRRsZbTgjGAGc0LDuVZ5JzKKc0adoHv5djm+aYGO0nHpyQqHeChhDJEG0VeYj/bu+99/YGX4EG3xV44HCQ5ESQkuTNqB8cQuqDNkwnA4FDkoPIdqZzqf6QAwUcOkeRKXlyNONyZowHyJhkgIQ+CQPYNNAhHBuigCO+PQvOg54zjLxYgDImxJ2VpAAFMHjsZ6rAUUcd5b9jDDVFiWQ99/1ROeJExstMPZnxcpRDSj2FUHc4FewjWXDSbRSgKmHkCS7iAYScUOQEeeJ/5OAf/uEf/PakIFYgMwp2SXGZMppBbT9N/wL1HTqSpLhjp2A1j4MJui5ykBQMGaOL7AcPxJE8fe973+vtzUZyg+4JkQ4rMiIimTaMvJi0jBEYPikonvaShpQPnyggvmPYCFIU5KCwzNClo+COlKTE2R7vyVRQEwYg1JmcEcq+SI+p0W5Ur0mjkmqrccc0LYgNCYMT2jmfcQfDaAYFnfHAgjoL2zoJPcBCd30P0TF5kXNooyfjA7qC+pbN3mqrrfxnlu0PQSbTAuGiATJYgGIUxaRlzJCB5GWNWVM+pEwwjCghKTnmscv5ZltWL+64wlO6KB+VXxLso4xD5FQShGBY4s5KVn0Z3UJTJJICBwUntK948JIUxIbEpwGqg8Ec0+ZRcEn9COqLOpJ+5TNs69IJoSPId7bFg9c0dF3ObZ1Kow8yhQxR56p32r9GUPIEFWEnR1xHSZ5IRSAfJMPIiwUoYwaKR8pFiivJaIUKSgZTwQ0BCoGKzsN2M3wT4FzygivK5Ytf/GJv65qwPxxZCeslTJR9Ug+70W3kQCAvIbRH1X1S8K82GP8dsI02zX7JljoarCOheVS3//zP/+wDTelXEkFLXBdLRuIdGToP+/OggCZ+HmO0oP2rvUumpCf4ZFueoBZdIT3C+eK2XecqIk9FZdYwwAKUMUSGcd68ef5TikO9dgLFJIeI3/A/hlXKi9+ot5bPPD0zowplJ+OwxRZb+E8ZhxCOW758ud/PPGDKTL3iSjwu9Ec/+tEa9WGMDpIVgRyoXdK+0oJStb3QaQhlj/1hMKLjTZaahfrUerQwoUOTgke2s5/6izuIWUFqGvzGgtTugyzg7Kvu9b/sMAldELfFkhlsTRroCMkdKWlqMhQZlUXudW1k2fSQUQQLUMaQUMGg6KTcUCBsixvE0Fii+FAycqaYzxo+9pRzx38/yshA6P5RxnqMY1I5xB/xmJayDInRfRRQ8Km2pP/TjDjbOYb2CnHZi/+W/dpn1A8BAfowdB555DP6FL2bpB9C3Yq+TQpUtT9NTozRAPlAfmjXoQylJaZtn3vuuWsEJ6EeSJI5tqFHkDeO4Vrxc4RI/tICXmQ2Lvd8T+t0MYw0zHKNISgWlAaKRmAwsxQU+6VsUD4QOkcYXSmkfgpuVOAe4/csJzIsW8F+KXfKLkTnMSU+HoSyI/lRr2ga/IZjly5d6ttg2F6TnAUdj4NjVA+OHnWILlTdqH7CTp4kJ5F2r2NI6Im0AITOi7j+MEaP+Mh6WmJKMR2FoczNmTPH6wjk5Nvf/rbfFrdJyCHH6Df8nuOT5FOwT8frOD7RP6EPoMQ1++k1w0jDApQxJa5kgO/xoCPcjxGVg80n/5NwgNjG6AA9OPq9ApmugEMXT0lQJuGwdegsyKiwn9+juNmvcksqFwU1nMsYL2g/eXrCOUbtTKmfQ6G23LV22CVo45Rv2L5JOGpsp35FGIBQl0qhYxnXJ8b4QrtmvZJkQ4n3lLG+kRcAI3+h/uD/ffbZZ43fKCFvyCXTiz/4wQ/6bchqlh4JUeemfhPXSSS2YQfz6DXDyMIClDFFDnZS70YYiKCIQiOLEkPBsQ9jqqlIfMrQLlq0aFL5KZBpI9x73EFIS1LsvOhSx7MtVMJ8zzqXgpY45EP7DUMgT7SruPPL/0kjJnHkPOQ51siH6oS2GrZ1vrMtyzGT7kzSEfwWPZDHSTRGG2QAWUAmQhk57bTTcrVl5Iuk80yfPn218yQldIXkN4swyFZSME7eTH6NMlmLP5GQGWPGgw8+6GbNmuUiZ8ddcsklva2rc/nll7so2PDfI8Xl5s2b578Dvz/mmGPcvffe6yLF5o4//ni//cYbb3SHHnqo/z5nzhx3xx13+O/x3zfNXXfd5fbaay//nTKYOnWqe/nll938+fP9tpCXXnrJ/a//9b/cVVdd5f+fOXOm/77LLrv4/wXHbbjhhi5S2O7II4/sbXVuxx13dJtvvrlbZ511eltW56KLLnJLlixpXRkZzYBsXn/99e7888/vbXG+ja299truS1/6kouCXLfddtv19qQze/Zst88++7jTTz89VfaM/qDrHn74YXfdddf5ehHoDXTc7rvvnqs+4jzxxBNuo402chtssEFvizHOIGdRQOHtLnZVYG/YnkdOkFHsbxQweBv03HPPedsTBSzunnvu8TL34osvuhdeeMHdfffd/jfSMxzz3/7bf3N77LGHu/XWW/22UAeFfPSjH3WHHXaY9w9Mfo3K8GGKMZbQ84EIpPX4Ab0i6vGj55YeGUFviXp5OEa9O5wv7GmZNm2a/6SXpi09LORV+QuTepLYz2gH96H7f//73+8///7v/36138STepQoqzz3q3po60iTUT20mXjvOrIYlyG1MaM6aIf0JGsESom6QR/kbdeG0Q9kjXYvG0CS/ViyZIn/P2nUPQnkUnIq+USO2Ybc9oO8KA9KnIt2QNJLX0nz58/3+8xmGVViAcoYk3eOOsouDDhQoPyPs8Q+lKAcK5x7BTwKVGbNmjX5Wxb0tcXJQvGrDEgEYDzi9xOf+MSqD3zgA5PbuV/mAn/qU5/y/y9cuHBSaSvJmMQT5UL5pEEZ6Thj/MCpQH5CeaE9qg0Z1UNZUw/oKukxJeoGHWGOmFEW2L94UILcIX8KRhQsIH954Hw6Tyir6kBEvoeFvHEu8m0YdWAByhgj55iUJ2jg+LhiJeHY8+JG1p7wP0oyXHTHJ/+zuE+/Oeyww1atWLHC728KFPmVV145macwxR0T7oH7TlPOCuB03yhzAhMMBCkN9XplHWOMFrS1uDOMvJXhRBj9oX0mOYkkdBnb2S/9ZRjDoI6wsCOCpKAkyfZyPMf00wmcWzIcD05AOqaMDg/lyWyVURcWoIw56nlB+RQBRSgHPG7kN9tsM//5oQ99yCvY0ND/8Ic/9M9r17Fz5871LyWswxngGuQnqaeU4IoyUA9WCL/DceG4tP3soxyK3oeMljmno01SUIK8IHM2WlI9/ZxE2p/VgzEs2EXZGNmMMCkATrIjIQoGkuyC7Fh4fuxw3PaQF/Yh42WgtpM1I8AwysQCFMMrw3jPS1EUsMQdABJP9Io7YijprbbaarXjmOPKOcpyFFDYaY6JDMVXvvIV/3/aNTmHDEFaEME1svanUbYBMdpFWlCC3A3b3ox0KFvaIuWc5CTizKFnrA6MYQjlLMnukdjO/qIjchzP79EX6BAS54p3BrItLdghbxxT1oiH9Fi/4MowysKe4mWUzhtvvOHuv/9+d+mll7of/OAHva0T8LQvni7CE7A47rLLLvNPsIL11lvP/cd//If/vmDBAvexj33M7bTTTm7atGnu0Ucf9duff/5598wzz/jvPHWLa+QlUtRu77339k9F0ZNHli5d6m677Tb/hJM4PAHl2GOP9U/uiYIcd8ghh/T2rAlPYIk/1asfZ599tjvllFNcZIwK/9ZoJ0lP4omcCi87++67r9tss838NqMceHIe+uDJJ5/0TyWiLYdPQIqcKnfwwQe77bff3j9Nb5CnbRkGT7/67W9/6/7whz94W5T0dKsoGPZPddtmm23cFltsMXRbxzYlXScKSrwsH3jggZlP0NLTIfvZrjzoaWBgLqNRFxagGJWCYr/lllsmg5CywBjwaOAsePzn+uuv77bccstUx2SttdbyCv+8887rbZlAj2sEHM4999zTfy8TnFmw4KS7KBgnyLSgpFpwkp5++mn3m9/8JtVJlPNWlpNojBfxx/Dyf/hoaYH92Xnnnb1dybIvw8L1RdFrEJiT98dzPpY8Cz2WP8lWGkZVWIBi1AKOHIqS9wnwbhR6OlesWOH38b6Gj3zkI76X85VXXvFO3vLly/2+rbbayhuA3//+9+5Xv/qV3wYoSgKQrbfe2k2fPn3gZ7EfffTR7qGHHvIjKDhAv/zlL923vvUtr9hxMumFMifHCKHX/rHHHnO33367HwETFpSUA+X7xz/+0QchjJjSPpNGSi0YMYqCjn/99dcngxCNyMdH3gRtGuceW7PJJpt0Rs70Ti4ow8XTaMyy3vtVDKMOLEAxGgNj8bOf/Wy1F6DRM8X0LhwPXhaFYpThWLx4sZ+ywTA7AUXYs8V2XkrH75gSRlCT9XJEEb6MUnCuk046yb+00V5wZyggYZQEmQzlTvK622672QvLCkLvMM4i07PofHjqqacSA5HQSaRDgpcbWjBihMQDD9CLCPNMBdaIvAKRjTfeOJf9aCtlj3jQkUcZ2nRko04sQDFaQdLcfa0ZefPNN91NN900OaUDY3LUUUf5tSTqacXBiQctoMCFUZZNN93UBzDh25u1DoZeNBmnXXfd1QKTMUbrGjTaFzo3yBM9iLNmzVptLZOxOhoFAa0fo40yQpq3txoncdipKUb3iQcfr7322qRMpb3pPERyBcgWEOiuu+66I/smf61vvPnmm928efN6WwcDG0lZwcqVK03nGbVhAYrRKjSnn0AjND4XXnih79FiWs0FF1zgt2F46CGKrw/J2zNLoMMUMqaWyWCZQzQ+IGvPPvusX/yKzBCUxB0eAhLmcjNCssMOO4xdz72cQxH2UEPRh1bIWVSHgY2IGFpnoaBDIx9pgWwI+h/igQeMsy5nbSWUEVDQeUiHDG1XU68Now4sQDFaC72w9913n7vmmmtWc3x4EhgoUMFIHXfccX2dHPXqam571txjzjllyhQfvGihPYbPHKnuISebelfva1a9a5rgqAQkCsRCCMooCxjmyXgi7KVW8AGUJYxqT7WRTih3g4x+KPhAhtDBGlUzPdwfHkzz3ve+t5TpWJoGTSchT7U0jLqwAMXoBGnBCo8hZioODPo4RRlSGVFNRckyoDKeoTMW9t6ZEa2HsIc/dLqznsAD4ehZfNpfm1DvskYEhXqZQ7LuNw9hkKHgXChID7HRxtGkX0ArwsBW5Bn1ENKhGv1QMGty1S60/qSqp1kaRhoWoBidg2BFT1FiyDk0iAQs9PKwdqUsQxefgqAApkhvc+j8gYyykHGOM649z+GoB6jMIa8TFC58lYPdlvLMmlefN9DQ+qok4vIl4oFGlxcCG/lIWg8EYZCbZy1HP+LymNR5Yx033YJgVZ1utv7EqBsLUIzOg0PHuhUeD8yi5hB66XDWMJAzZsyozBkLe/Ljvd2hcz3oFJo4cr5F6JDGndA2BzmUG85Tv/VCIq2XX9M/oCmnO00GBpnWkjYyZ73LhghHOjTCEY5q5A064oGFplSJsG2FmCyOPnoamK0/MZrAAhRjpGBBH09ZeuSRR/z7VeJviEfRsp1FzzjxTRvZ0KkNSZpSAfFpFUUDntDBDx0RjeBU0cOpe8RJl7OeNkogZ4n86HHRVfe6aoQsTtjbDGGgAUXKPnQCFUwq8LD1GUZcD8QfRlB0tCOUt6Q1QVW3KWM00NPA7P0nRhNYgGKMHExpOOecc7whx1CfccYZ/qkmrGFJehQxoxF1vBW4DuKOTuhQh8FN3mlS6tGPEwY3OO6vvvqqT5r6hoPFaIjWB8VhKt7aa6/tHad3vOMd7j3veY9717ve5d7+9rf3jliTskafhiU+ehWWRXz0ynqZR49wyhSkdSYkrROCYaZT9Qs8LNg1ygJbwmg02PQuowksQDFGFp5kst9++/nvvFOFp38x9UdTI3DemVaUFLRopEWPIMbwj2KPYzhNJOy1jY/U/PnPf/bHlhUgxJ38QYgv5B6WcCpViAUZo0d81Cw+WhYGF2UGxkkBf5Ich7Joox1GEyxdutQH09jOk08+ubfVMOrDAhRjpKEX6PTTT/cOBr2PaW+IzxO0gBxr9ZqP0jQd9QyrRxgnLcs503SxeFnYwmujTMIgOon4CMYwU/GSKLLeS1hQa3SZ6667zh166KHeZvIwGtPnRhNYgGKMBShcpn0xrUmBClMl+gUV9LRqZKGfwy5Ch0bOe+jI1O3Ahw6eHLfQicua7hUPQvi0aSRGFvEpUFmjE6LI42mLkjUlD+KLwC3ANsYZ2u+GG27o7SR200bvjKawAMUYG3DUb7zxxslABXBeFixY4BfNF3G6k5z+oo/CDeeTy2ka9GVkyk/e0Q8R5kE9w+TFppUYIZoSFU4DDOV9mHUV4YMb4oTrLJJAVuNYgGEYg0OA8p3vfMcvijcbYDSJBSjG2IEzz2OJf/CDH6zmwOMozZ071ztLZS6WT3Lu1IvMvqx3XiiACN9qDyyE/+tf/+rPkxYMxUc/2vAoXqN+4g9OCGF7+EjscGStn2yKMMiFcApUfHTCRt8MwzCMPFiAYow1ClaSXvoIcvKTnpgjBh1tSHoaECig+bd/+zffQ/3QQw/5J2KlgQNI8MKwPE/D2mWXXXx+46QtAoeygjEjG9WtiE9/Ckcl4lQ5DSoJTY0KF3GHMmQyYxiGYVSFBSiGEUBv89NPPz255iRvL3IdzJs3zwce73vf+/wjenmyFgnKzmfStJuwZzwkK/DJIhxRqoIsZz8NBRCDON9lPu0J4iMTRUmrL2HTowzDMIy2YgGKYeQgXHOS5lgnLf6FfvPok2BKlhbVDzotJt5bH5L07ob4o4Wh7l77qhnW6Q+hbPKeS9PsRFi/YGt+DMMwDOMtLEAxDKMQ8alpbcOmHhmGYRhGt7EAxTAMwzAMwzCM1vC23qdhGIZhGIZhGEbjWIBiGIZhGIZhGEZrsADFMAzDMAzDMIzWYAGKYRiGYRiGYRitwQIUwzAMwzAMwzBagwUohmEYhmEYhmG0BgtQDMMwDMMwDMNoDRagGIZhGIZhGIbRGixAMQzDMAzDMAyjNViAYhiGYRiGYRhGa7AAxTAMwzAMwzCM1mABimEYhmEYhmEYrcECFMMwDMMwDMMwWoMFKIZhGIZhGIZhtAYLUAzDMAzDMAzDaA0WoBiGYRiGYRiG0RosQDEMwzAMwzAMozVYgGIYhmEYhmEYRmuwAMUwDMMwDMMwjNZgAYphGIZhGIZhGK3BAhTDMAzDMAzDMFqDBSiGYRiGYRiGYbQE5/5/tpVMiP89f0MAAAAASUVORK5CYII=;" vertex="1" parent="1">
                    <mxGeometry x="19" y="220" width="808" height="225" as="geometry"/>
                </mxCell>
            </root>
        </mxGraphModel>
    </diagram>
</mxfile>